<svg width="337" height="238" viewBox="0 0 337 238" fill="none" xmlns="http://www.w3.org/2000/svg">
<path d="M274.383 161.104C274.393 161.574 274.403 162.044 274.189 162.897C273.966 163.28 273.863 163.62 273.876 163.71C273.889 163.799 273.759 163.926 273.408 164.02C272.37 167.074 271.684 170.033 270.999 172.996C271 173 270.994 173.001 270.743 173.215C270.333 174.282 270.175 175.136 269.983 176.318C269.92 177.087 269.891 177.526 269.582 178.144C267.651 180.46 266 182.597 264.382 184.692C263.037 183.993 261.941 183.425 260.7 182.452C260.466 180.029 260.377 178.01 260.518 175.706C260.53 165.754 256.195 157.799 250.419 150.418C248.528 148.002 246.795 145.462 245.241 142.792C245.625 142.01 245.758 141.416 245.948 140.555C246.289 139.845 246.573 139.401 247.226 138.939C248.95 136.478 250.662 134.145 251.48 131.532C251.781 130.57 250.233 128.305 249.048 127.83C248.099 127.449 245.809 128.517 245.193 129.572C243.596 132.305 242.595 135.387 241.262 138.224C241.168 138.118 241.314 138.36 240.947 138.262C239.617 138.718 238.559 139.154 237.707 139.846C234.477 142.468 231.655 145.879 228.023 147.634C224.874 149.155 223.434 150.94 223.029 154.059C222.989 154.027 223.078 154.074 222.706 154.043C217.372 156.305 212.908 159.203 209.833 163.798C207.398 164.011 205.2 164.508 202.742 164.792C203.697 162.87 204.912 161.16 206.258 159.266C204.728 158.028 202.853 156.512 201.115 154.665C202.764 151.047 204.324 147.78 205.782 144.468C209.91 135.089 213.925 125.659 218.178 116.337C218.814 114.944 220.391 113.887 221.717 112.933C222.86 112.11 224.268 111.656 226.682 110.502C223.979 105.991 221.55 101.938 219.059 97.6075C218.669 96.8818 218.341 96.4349 217.97 95.6425C215.964 93.8512 214.002 92.4054 211.862 90.6548C203.709 84.5566 194.577 82.9794 184.993 82.6631C183.659 81.1996 182.33 80.1003 181.075 78.6333C182.916 77.5748 184.683 76.8837 187.015 75.9722C184.996 75.1809 183.494 74.5921 181.995 73.603C181.999 72.1351 182 71.0677 182.339 69.999C183.125 69.9944 183.575 69.9912 184.385 69.9448C189.055 68.5974 193.493 67.598 197.632 65.88C200.32 64.7638 202.641 62.6816 204.944 60.8077C205.249 60.5594 204.473 58.9825 203.883 57.8596C202.404 57.517 201.239 57.3356 199.827 56.8415C197.72 56.3538 195.861 56.1786 194.06 55.6478C196.044 53.5486 199.111 52.4904 198.19 48.6441C199.953 47.7297 201.483 47.0689 203.449 46.3427C206.226 46.304 208.567 46.3309 211.01 46.6294C212.731 46.7429 214.349 46.5848 216.208 46.3145C216.6 46.1103 216.751 46.0184 217.206 45.6836C217.154 39.7774 216.798 34.114 216.403 27.8243C220.9 30.7288 225.616 33.8525 230.422 36.8296C231.859 37.7199 233.55 38.2001 235.088 38.9377C235.052 39.0072 235.101 38.8587 235.171 39.1195C235.545 39.5508 235.848 39.7212 236.072 39.9123C235.993 39.9331 236.142 39.8656 236.089 40.2393C238.073 42.6973 240.111 44.7814 242.156 46.8754C242.163 46.8852 242.187 46.8579 242.117 47.2438C242.266 48.7463 242.11 50.2007 242.763 50.9244C246.809 55.4044 251.063 59.6952 255.184 64.1084C256.172 65.1669 257.433 66.3484 257.691 67.6479C258.966 74.053 259.945 80.5168 260.86 87.2908C259.795 90.893 258.237 94.1418 258.125 97.4399C257.783 107.446 258.001 117.471 258.001 127.911C261.09 127.344 264.595 130.134 265.283 124.856C267.67 124.025 268.593 118.771 271.98 123.445C272.857 126.268 273.714 128.7 274.572 131.131C274.803 132.28 275.035 133.429 275.401 135.269C275.527 137.567 275.517 139.173 275.361 140.803C275.215 140.827 274.956 140.971 274.684 141.248C274.567 144.059 274.723 146.594 274.93 149.32C275.075 149.771 275.243 149.969 275.52 150.469C275.6 152.026 275.643 153.221 275.685 154.416C275.685 154.416 275.349 154.696 274.827 154.9C274.331 157.105 274.357 159.105 274.383 161.104Z" fill="#8EC677"/>
<path d="M121.169 114.919C121.688 115.079 122.207 115.239 122.903 115.958C125.131 121.001 127.182 125.486 128.731 130.004C127.252 130.209 126.274 130.382 125.068 130.499C124.529 130.365 124.235 130.248 123.9 129.704C119.532 126.367 115.947 128.473 112.518 131.05C109.96 132.973 107.539 135.079 105.01 136.746C103.885 134.975 102.792 133.572 101.734 132.142C100.475 130.438 99.2466 128.712 98.3921 126.996C102.334 126.928 104.455 125.367 104.721 122.224C101.131 121.375 97.9899 120.632 94.9178 119.532C100.538 113.698 107.383 113.457 114.529 114.249C115.659 114.374 116.847 113.968 118.342 113.856C119.104 114.04 119.532 114.176 120.109 114.501C120.526 114.911 120.829 114.987 121.169 114.919Z" fill="#8EC677"/>
<path d="M181.001 79.001C182.33 80.1004 183.659 81.1997 184.525 82.6654C175.036 83.0336 166.011 83.0355 156.64 82.8821C152.588 81.2658 148.915 79.709 145.154 78.406C144.122 78.0485 142.827 78.4506 141.62 78.4501C141.587 78.3961 141.526 78.285 141.663 77.9271C141.359 76.342 140.916 75.1149 140.412 73.5356C140.285 72.4738 140.22 71.7642 140.154 71.0546C140.316 70.7972 140.472 70.5364 141.067 70.4239C144.341 70.3879 147.17 70.2002 150.374 69.9778C151.5 69.9776 152.251 70.012 153.296 70.3289C158.043 70.3738 162.498 70.1363 167.148 70.193C168.301 73.0772 169.257 75.6672 170.487 79.001C173.426 79.001 177.213 79.001 181.001 79.001Z" fill="#8EC677"/>
<path d="M261.028 86.9599C259.945 80.5168 258.966 74.0531 257.691 67.6479C257.433 66.3485 256.172 65.167 255.184 64.1084C251.063 59.6953 246.809 55.4044 242.763 50.9244C242.11 50.2008 242.266 48.7464 242.412 47.3999C247.125 51.8255 251.626 56.35 255.771 61.1807C258.727 64.6265 261.204 68.4839 263.895 72.1576C263.906 72.8557 263.917 73.5537 263.563 74.7336C262.731 76.4628 261.64 77.8677 261.908 78.9301C263.022 83.3525 264.546 87.6718 265.92 92.0289C265.988 93.0788 266.055 94.1287 266.134 96.0258C266.146 104.631 266.146 112.389 266.146 119.569C266.78 118.531 267.848 116.781 269.145 114.657C270.233 116.061 271.008 117.062 271.784 118.064C271.953 118.967 272.122 119.871 272.187 121.515C272.042 122.522 272.002 122.788 271.961 123.054C268.593 118.771 267.67 124.025 264.935 124.801C263.825 123.942 263.35 122.973 262.922 121.561C263.322 112.752 263.675 104.388 264.015 96.0117C264.002 96.0006 264.024 96.0216 264.192 95.936C264.235 95.5877 264.109 95.325 263.969 94.7806C263.964 94.3112 263.973 94.1234 264.156 93.8587C264.396 93.675 264.544 93.5116 264.516 93.4711C264.379 93.2736 264.194 93.1089 263.991 92.5816C262.98 90.4737 262.004 88.7168 261.028 86.9599Z" fill="#8EC677"/>
<path d="M167.038 116.093C167.467 116.051 167.896 116.008 168.91 115.92C170.015 115.642 170.535 115.408 171.387 115.179C172.566 114.957 173.413 114.73 174.657 114.469C182.145 111.43 189.236 108.428 196.327 105.425C196.327 105.425 196.356 105.35 196.695 105.236C199.012 103.054 200.992 100.986 203.222 98.759C204.246 98.1014 205.019 97.6032 205.842 97.5226C207.719 107.626 208.485 117.208 203.064 125.753C203.844 118.435 204.67 111.549 205.667 103.242C201.946 105.336 199.879 106.565 197.753 107.683C193.716 109.807 189.8 112.284 185.553 113.859C179.15 116.233 172.507 117.958 165.554 119.966C163.763 119.992 162.384 120.011 160.778 120.124C160.27 120.409 160.071 120.664 159.62 121.13C157.591 121.877 155.871 122.416 154.204 123.087C149.446 125.004 144.709 126.974 139.619 128.928C138.187 128.626 137.1 128.318 136.129 127.751C136.616 127.063 136.988 126.633 137.533 126.192C137.706 126.18 137.99 125.979 138.363 125.968C148.169 122.669 157.604 119.381 167.038 116.093Z" fill="#8EC677"/>
<path d="M131.306 177.114C131.193 177.539 131.079 177.965 130.754 178.933C130.369 180.317 130.196 181.157 129.778 182.183C129.51 182.953 129.487 183.537 129.332 184.465C129.124 185.537 129.047 186.265 128.77 187.099C128.399 187.456 128.265 187.726 127.827 188.016C127.031 188.018 126.576 188.019 126.089 187.665C127.711 181.54 129.363 175.769 131.158 169.686C135.482 160.969 142.199 155.031 150.011 150.555C150.082 151.512 150.139 152.059 150.155 152.823C149.972 153.301 149.892 153.581 149.875 153.878C149.875 153.878 149.996 154.001 149.592 153.955C146.749 155.91 144.311 157.91 141.664 160.015C141.199 160.309 141.006 160.55 140.571 160.987C137.819 165.076 135.374 169.022 132.708 173.156C132.344 173.901 132.2 174.458 131.807 175.192C131.473 175.952 131.39 176.533 131.306 177.114Z" fill="#8EC677"/>
<path d="M212.716 29.0937C212.403 28.4906 212.09 27.8875 211.474 27.1255C213.125 21.5692 216.306 24.4519 219.594 25.9031C221.165 27.1879 222.332 28.4215 223.643 29.4742C227.342 32.4444 231.102 35.3402 234.981 38.5668C233.55 38.2002 231.859 37.7199 230.422 36.8297C225.616 33.8526 220.9 30.7288 216.403 27.8244C216.798 34.114 217.154 39.7774 217.162 45.2873C215.449 39.7872 214.083 34.4404 212.716 29.0937Z" fill="#8EC677"/>
<path d="M118.008 113.808C116.847 113.968 115.659 114.374 114.529 114.249C107.383 113.457 100.538 113.698 94.6081 119.593C93.8297 120.67 93.4303 121.329 93.0421 122.336C93.638 126.408 87.9649 132.84 83.1246 133.706C85.3775 130.517 87.4628 127.589 89.7438 124.821C91.4681 122.729 90.8323 121.675 88.5147 121.031C88.6283 120.594 88.7418 120.158 89.3094 119.362C95.1769 116.674 100.59 114.346 106.004 112.018C108.042 112.038 110.08 112.057 112.802 112.294C114.994 112.944 116.501 113.376 118.008 113.808Z" fill="#8EC677"/>
<path d="M260.518 175.706C259.777 174.486 259.267 172.98 258.566 171.201C258.291 170.487 258.208 170.048 258.009 168.948C255.084 163.396 252.274 158.504 249.465 153.611C249.465 153.611 249.518 153.482 249.529 153.41C247.983 151.447 246.183 149.699 244.952 147.615C244.124 146.213 244.102 144.336 244.089 142.312C244.459 141.954 244.931 141.85 244.951 142.132C244.978 142.602 244.984 142.791 244.99 142.979C246.796 145.462 248.528 148.002 250.419 150.418C256.195 157.799 260.53 165.754 260.518 175.706Z" fill="#8EC677"/>
<path d="M176.062 61.0568C176.654 60.2355 177.246 59.4141 177.918 58.2964C177.998 58 178 58 178.313 57.8813C183.953 51.2941 190.913 47.6913 199.036 46.1278C199.607 46.0229 200.177 45.9181 201.02 45.711C201.603 45.6632 201.916 45.7057 202.553 45.9159C202.875 46.0956 203.012 46.4082 203.012 46.4082C201.483 47.069 199.954 47.7297 197.805 48.6615C193.429 51.2483 189.671 53.5641 185.574 55.9683C183.459 57.3491 181.684 58.6414 179.616 60.0827C178.313 60.584 177.302 60.9362 176.234 61.2307C176.176 61.173 176.062 61.0568 176.062 61.0568Z" fill="#8EC677"/>
<path d="M268.846 184.562C267.719 186.586 266.653 188.228 265.136 190.113C264.434 190.538 264.395 190.76 264.567 191.02C263.532 192.269 262.497 193.518 260.919 194.935C260.157 195.106 259.938 195.111 259.719 195.115C259.955 191.318 260.191 187.521 260.636 183.29C261.941 183.425 263.037 183.994 264.382 184.692C266 182.598 267.651 180.46 269.856 178.159C270.592 177.994 270.774 177.993 270.956 177.993C270.273 180.055 269.59 182.118 268.846 184.562Z" fill="#8EC677"/>
<path d="M91.3325 154.2C88.6355 154.915 86.202 155.504 83.4157 155.705C84.0417 154.548 85.0205 153.78 86.382 153.014C88.7147 151.982 90.6996 151.007 92.6069 149.898C95.8139 148.034 98.9717 146.085 102.116 144.471C102.042 145.169 102.002 145.567 101.962 145.966C101.962 145.966 101.999 145.998 101.667 146.099C98.4584 148.706 95.5812 151.211 92.704 153.717C92.3346 153.836 91.9653 153.956 91.3325 154.2Z" fill="#8EC677"/>
<path d="M124.675 116.006C127.432 120.3 129.876 124.531 131.975 129.295C131.363 129.88 131.098 129.93 130.564 129.979C129.941 129.975 129.587 129.973 129.232 129.971C127.182 125.486 125.131 121.001 123.092 116.155C123.523 115.844 123.942 115.893 124.675 116.006Z" fill="#8EC677"/>
<path d="M270.997 172.993C271.684 170.034 272.37 167.074 273.493 164.388C273.645 166.112 273.36 167.561 273.076 169.01C273.043 170.071 273.009 171.133 272.592 172.59C271.805 172.989 271.401 172.991 270.997 172.993Z" fill="#8EC677"/>
<path d="M143.611 67.9996C145.769 68.6084 147.542 69.1879 149.657 69.8899C147.17 70.2001 144.341 70.3878 141.246 70.2819C140.962 69.5448 140.945 69.1014 140.921 68.3227C141.684 67.9817 142.455 67.9761 143.611 67.9996Z" fill="#8EC677"/>
<path d="M64.5739 148.865C64.2818 148.033 64.1453 147.36 64.375 146.374C66.144 148.379 67.5468 150.698 68.9496 153.016C67.8692 152.046 66.7888 151.075 65.4328 149.951C65.0689 149.509 64.9264 149.252 64.5739 148.865Z" fill="#8EC677"/>
<path d="M271.98 123.445C272.002 122.788 272.042 122.522 272.171 121.86C272.408 121.546 272.557 121.627 272.91 122.187C273.68 124.46 274.246 126.256 274.812 128.052C274.817 128.832 274.821 129.612 274.699 130.762C273.714 128.7 272.857 126.268 271.98 123.445Z" fill="#8EC677"/>
<path d="M274.6 160.71C274.357 159.105 274.331 157.105 274.663 155.046C274.953 156.763 274.885 158.539 274.6 160.71Z" fill="#8EC677"/>
<path d="M275.105 127.854C274.246 126.256 273.68 124.46 273.138 122.299C273.907 123.841 274.652 125.748 275.105 127.854Z" fill="#8EC677"/>
<path d="M270.999 172.996C271.401 172.991 271.805 172.989 272.511 172.982C272.414 174.543 272.014 176.107 271.285 177.832C270.774 177.993 270.592 177.994 270.135 177.98C269.891 177.526 269.92 177.087 270.242 176.113C270.687 174.719 270.841 173.86 270.994 173.001C270.994 173.001 271 173 270.999 172.996Z" fill="#8EC677"/>
<path d="M273.41 168.941C273.36 167.561 273.645 166.112 273.844 164.294C273.759 163.927 273.889 163.799 274.076 163.801C274.263 163.802 274.688 163.903 274.688 163.903C274.374 165.56 274.059 167.216 273.41 168.941Z" fill="#8EC677"/>
<path d="M131.807 175.192C132.339 175.471 132.622 175.928 132.905 176.669C132.55 176.995 132.195 177.036 131.573 177.096C131.39 176.533 131.473 175.952 131.807 175.192Z" fill="#8EC677"/>
<path d="M274.587 163.673C274.688 163.903 274.263 163.802 274.063 163.711C273.863 163.62 273.966 163.28 274.023 163.213C274.216 163.245 274.351 163.344 274.587 163.673Z" fill="#8EC677"/>
<path d="M120.109 114.501C120.132 114.244 120.305 114.177 120.746 114.039C121.015 113.97 121.14 114.437 121.154 114.678C120.829 114.987 120.526 114.911 120.109 114.501Z" fill="#8EC677"/>
<path d="M205.983 138.991C206.333 138.535 206.682 138.078 207.352 137.18C208.101 135.821 208.528 134.905 208.955 133.989C208.955 133.989 209.009 133.971 209.281 133.773C211.071 130.077 212.588 126.58 214.099 123.068C214.093 123.054 214.086 123.07 214.363 122.844C215.367 119.733 216.092 116.848 216.903 113.543C216.984 111.416 216.98 109.708 217.073 107.728C217.188 107.071 217.207 106.686 217.562 106.314C219.137 106.814 220.375 107.301 222.892 108.292C221.165 104.172 219.925 101.214 218.795 98.1639C218.905 98.0723 219.122 97.8864 219.122 97.8864C221.55 101.938 223.979 105.991 226.682 110.502C224.268 111.656 222.86 112.11 221.717 112.933C220.391 113.887 218.814 114.945 218.178 116.337C213.925 125.659 209.91 135.089 205.782 144.468C204.324 147.78 202.764 151.048 201.079 155.007C200.577 156.768 200.249 157.858 199.623 159.117C198.864 160.51 198.4 161.734 197.675 163.215C196.751 164.67 196.089 165.869 195.307 166.745C196.683 161.554 197.903 156.578 199.753 151.847C201.483 147.426 203.88 143.266 205.983 138.991Z" fill="#8EC677"/>
<path d="M199.92 158.948C200.249 157.858 200.577 156.768 200.942 155.337C202.853 156.512 204.728 158.028 206.258 159.266C204.912 161.16 203.697 162.87 202.742 165.189C202.642 168.988 204.704 169.146 206.862 169.353C206.132 174.479 202.287 178.887 205.113 184.042C205.131 184.785 205.149 185.527 204.729 186.627C198.759 185.836 198.288 181.484 198.184 176.743C199.311 173.993 203.742 172.756 200.679 169.026C199.574 169.704 198.79 170.355 197.878 171.302C197.496 172.402 197.242 173.209 196.576 173.999C195.889 173.987 195.614 173.991 195.313 173.564C195.335 171.11 195.381 169.089 195.427 167.067C196.089 165.869 196.751 164.67 198.053 163.221C201.883 162.479 201.445 160.879 199.92 158.948Z" fill="#8EC677"/>
<path d="M263.982 93.9356C263.973 94.1234 263.964 94.3111 263.977 95.0202C263.999 95.5414 264.024 96.0215 264.024 96.0215C264.024 96.0215 264.002 96.0006 263.64 96.0453C262.202 97.6322 260.328 99.1116 260.201 100.728C259.811 105.685 259.822 110.717 260.235 115.674C260.416 117.842 261.954 119.898 262.875 122.004C263.35 122.973 263.825 123.942 264.648 124.965C264.595 130.134 261.09 127.344 258.001 127.911C258.001 117.471 257.783 107.446 258.125 97.4399C258.237 94.1418 259.795 90.893 260.86 87.2908C262.004 88.7168 262.981 90.4736 263.978 92.8326C263.994 93.6016 263.988 93.7686 263.982 93.9356Z" fill="#8EC677"/>
<path d="M181.075 78.6334C177.213 79.0009 173.426 79.0009 170.487 79.0009C169.257 75.6671 168.301 73.0772 167.385 69.9486C168.942 68.9074 170.46 68.4049 172.015 68.2615C173.943 73.0418 177.383 74.6016 181.992 74.0034C183.494 74.5922 184.996 75.181 187.015 75.9723C184.683 76.8838 182.916 77.5748 181.075 78.6334Z" fill="#8EC677"/>
<path d="M156.986 83.0373C166.011 83.0354 175.036 83.0335 184.53 83.0295C194.577 82.9795 203.709 84.5567 211.73 90.7975C211.776 91.2449 211.512 91.5307 211.184 91.4145C207.918 90.2864 204.981 89.2745 202.045 88.2625C198.645 87.481 195.246 86.6995 191.133 85.6871C188.587 85.4265 186.754 85.3967 184.922 85.3669C182.576 85.2155 180.231 85.064 177.115 84.7097C169.898 84.3276 163.452 84.1482 157 83.736C156.994 83.5031 156.986 83.0373 156.986 83.0373Z" fill="#8EC677"/>
<path d="M205.334 184.018C202.287 178.887 206.132 174.479 207.011 169.06C208.226 166.969 209.147 165.525 210.069 164.08C212.909 159.203 217.372 156.305 222.706 154.043C219.052 158.583 214.676 162.837 211.127 167.694C208.875 170.777 207.852 174.758 206.351 178.698C206.237 180.428 206.05 181.796 205.93 183.573C205.998 183.983 205.554 183.995 205.334 184.018Z" fill="#8EC677"/>
<path d="M203.449 46.3427C203.012 46.4083 202.875 46.0956 202.787 45.9515C203.07 45.1837 203.44 44.5599 204.31 43.5284C207.703 43.1206 210.595 43.1206 214.65 43.1206C212.865 37.6547 211.451 33.3237 210.036 28.9927C210.629 29.0084 211.223 29.0241 212.266 29.0668C214.083 34.4404 215.449 39.7872 216.859 45.5302C216.751 46.0184 216.6 46.1104 215.796 46.224C213.731 46.2831 212.32 46.3205 210.908 46.3578C208.567 46.331 206.226 46.3041 203.449 46.3427Z" fill="#8EC677"/>
<path d="M185.913 55.8799C189.671 53.5641 193.429 51.2483 197.571 48.9153C199.111 52.4905 196.044 53.5487 193.932 55.9436C193.504 57.4031 193.263 58.2113 193.012 59.01C193.002 59.0005 193.017 59.019 192.81 59.0713C192.333 59.2517 192.143 59.4541 191.829 59.8969C191.293 60.1354 190.958 60.2079 190.172 60.1928C188.819 60.0803 187.916 60.0554 187.006 59.6685C186.638 58.1643 186.275 57.0221 185.913 55.8799Z" fill="#8EC677"/>
<path d="M190.623 60.2803C190.958 60.2078 191.293 60.1353 192.051 59.8806C192.761 59.5568 192.942 59.3303 193.017 59.0189C193.017 59.0189 193.002 59.0004 193.386 58.9885C195.871 58.3692 197.973 57.7617 200.074 57.1542C201.239 57.3356 202.404 57.517 203.712 58.1643C199.885 64.9319 193.263 64.3239 187.208 64.8832C187.265 64.7253 187.168 64.4038 187.453 64.214C188.7 62.7763 189.661 61.5283 190.623 60.2803Z" fill="#8EC677"/>
<path d="M187.15 65.0411C193.263 64.324 199.885 64.932 204.026 58.3256C204.473 58.9825 205.249 60.5595 204.944 60.8077C202.641 62.6816 200.32 64.7638 197.632 65.88C193.493 67.5981 189.055 68.5974 184.343 69.5821C183.639 67.8481 183.335 66.4336 183.441 65.0153C184.95 65.0213 186.05 65.0312 187.15 65.0411Z" fill="#8EC677"/>
<path d="M242.84 137.752C242.525 137.933 242.21 138.113 241.626 138.311C242.595 135.387 243.596 132.305 245.193 129.572C245.809 128.517 248.099 127.449 249.048 127.83C250.233 128.305 251.781 130.57 251.48 131.532C250.662 134.145 248.95 136.478 247.3 138.568C247.369 136.623 247.732 135.032 248.095 133.442C247.645 133.205 247.195 132.968 246.745 132.731C245.444 134.405 244.142 136.079 242.84 137.752Z" fill="#8EC677"/>
<path d="M226.75 152.195C225.622 152.975 224.668 153.483 223.392 154.041C223.434 150.94 224.874 149.155 228.023 147.634C231.655 145.879 234.477 142.468 237.707 139.846C238.559 139.155 239.617 138.718 240.947 138.262C237.741 141.82 234.182 145.296 230.586 148.732C229.416 149.849 228.147 150.863 226.75 152.195Z" fill="#8EC677"/>
<path d="M181.995 73.603C177.383 74.6015 173.943 73.0417 172.2 68.0045C173.534 66.5681 174.72 65.7476 175.939 65.3104C176.341 69.4268 178.824 70.2004 182.002 70.0003C182 71.0677 181.999 72.1351 181.995 73.603Z" fill="#8EC677"/>
<path d="M182.339 69.999C178.824 70.2004 176.341 69.4268 175.954 65.3141C175.937 64.9346 175.946 64.9147 176.389 64.9432C178.899 64.9875 180.965 65.0033 183.031 65.0191C183.335 66.4336 183.639 67.8481 183.983 69.6252C183.575 69.9912 183.125 69.9944 182.339 69.999Z" fill="#8EC677"/>
<path d="M209.833 163.798C209.147 165.525 208.226 166.969 207.156 168.707C204.704 169.146 202.642 168.988 203.002 165.402C205.2 164.508 207.399 164.011 209.833 163.798Z" fill="#8EC677"/>
<path d="M243.151 137.992C244.142 136.079 245.444 134.405 246.745 132.731C247.195 132.968 247.645 133.205 248.095 133.442C247.732 135.033 247.369 136.623 246.932 138.586C246.573 139.401 246.289 139.845 245.744 140.683C245.235 141.288 245.051 141.546 244.931 141.85C244.931 141.85 244.459 141.954 244.217 141.971C243.804 140.735 243.632 139.483 243.151 137.992Z" fill="#8EC677"/>
<path d="M236.089 40.2394C238.117 41.9763 240.092 44.087 242.108 46.5316C240.111 44.7815 238.073 42.6973 236.089 40.2394Z" fill="#8EC677"/>
<path d="M199.827 56.8416C197.973 57.7617 195.871 58.3692 193.396 58.9981C193.263 58.2113 193.504 57.4031 193.874 56.2993C195.861 56.1787 197.72 56.3539 199.827 56.8416Z" fill="#8EC677"/>
<path d="M211.908 91.1023C214.002 92.4055 215.964 93.8513 217.829 95.7802C217.732 96.2633 217.451 96.539 217.185 96.3532C215.117 94.6218 213.315 93.0763 211.512 91.5307C211.512 91.5307 211.776 91.2449 211.908 91.1023Z" fill="#8EC677"/>
<path d="M275.361 140.803C275.606 143.594 275.705 146.408 275.643 149.664C275.243 149.969 275.075 149.771 274.971 148.863C274.96 145.8 274.958 143.385 274.956 140.971C274.956 140.971 275.215 140.827 275.361 140.803Z" fill="#8EC677"/>
<path d="M274.684 141.248C274.958 143.385 274.96 145.8 274.921 148.671C274.723 146.594 274.567 144.059 274.684 141.248Z" fill="#8EC677"/>
<path d="M211.01 46.6295C212.32 46.3205 213.731 46.2831 215.555 46.3363C214.349 46.5849 212.731 46.743 211.01 46.6295Z" fill="#8EC677"/>
<path d="M270.743 173.215C270.841 173.86 270.687 174.719 270.275 175.784C270.175 175.136 270.333 174.282 270.743 173.215Z" fill="#8EC677"/>
<path d="M244.951 142.132C245.051 141.546 245.235 141.288 245.688 140.948C245.758 141.416 245.625 142.01 245.241 142.792C244.984 142.791 244.978 142.602 244.951 142.132Z" fill="#8EC677"/>
<path d="M217.873 96.1257C218.341 96.435 218.668 96.8819 219.059 97.6075C219.122 97.8863 218.905 98.0723 218.581 98.0003C217.988 97.4652 217.72 97.0021 217.451 96.539C217.451 96.539 217.732 96.2633 217.873 96.1257Z" fill="#8EC677"/>
<path d="M235.171 39.1196C235.407 39.027 235.713 39.1953 236.085 39.6276C235.848 39.7213 235.545 39.5508 235.171 39.1196Z" fill="#8EC677"/>
<path d="M165.966 119.959C172.507 117.958 179.15 116.233 185.553 113.859C189.8 112.284 193.716 109.807 197.753 107.683C199.879 106.565 201.946 105.336 205.667 103.241C204.67 111.549 203.844 118.435 203.024 126.054C203.011 127.188 202.993 127.589 202.824 128.168C202.487 128.621 202.441 128.917 202.535 129.235C202.535 129.235 202.242 129.018 202.004 128.659C199.624 126.358 198.724 127.543 197.933 129.672C197.388 131.139 196.813 133.131 195.651 133.736C191.187 136.061 186.433 137.821 181.894 140.014C180.458 140.707 179.357 142.093 178.047 143.36C177.991 143.558 177.99 143.969 177.99 143.969C177.549 143.991 177.108 144.013 176.131 143.757C174.727 143.325 173.86 143.171 173.002 142.615C173.256 140.666 173.499 139.119 173.789 137.276C170.343 137.058 167.358 136.869 163.63 136.634C165.062 134.813 165.816 133.856 166.94 132.427C164.011 132.104 161.67 131.845 159.328 131.587C159.145 131.102 158.963 130.617 158.78 130.132C160.074 129.423 161.295 128.411 162.68 128.074C165.067 127.494 167.555 127.335 170.377 127.007C171.565 127.473 172.332 128.068 173.2 128.358C174.578 128.818 176.024 129.074 177.44 129.417C176.771 128.188 176.334 126.73 175.389 125.773C172.744 123.094 170.026 120.399 165.966 119.959Z" fill="#8EC677"/>
<path d="M178.103 143.163C179.357 142.093 180.458 140.707 181.894 140.014C186.433 137.821 191.187 136.061 195.651 133.737C196.813 133.131 197.388 131.139 197.933 129.672C198.724 127.543 199.624 126.358 201.887 128.519C201.814 129.272 201.619 129.805 200.939 130.823C199.608 132.513 198.763 133.717 197.917 134.921C197.917 134.921 198.009 134.981 197.652 134.984C196.722 135.577 196.148 136.167 195.575 136.757C195.575 136.757 195.253 136.788 194.771 136.907C191.177 138.642 188.066 140.258 184.956 141.874C184.523 141.936 184.091 141.998 183.097 142.138C182.278 142.425 182.02 142.634 181.763 142.842C181.382 142.908 181 142.975 180.023 143.083C178.985 143.137 178.544 143.15 178.103 143.163Z" fill="#8EC677"/>
<path d="M172.992 143.017C173.859 143.171 174.727 143.326 175.8 143.743C174.844 144.531 173.683 145.056 171.85 145.717C168.108 146.865 165.038 147.876 161.968 148.888C161.123 149.077 160.278 149.267 159.191 149.673C156.281 150.736 153.614 151.582 150.572 152.518C150.139 152.06 150.082 151.512 150.271 150.406C151.025 149.257 151.534 148.667 152.469 148.06C156.257 147.657 159.619 147.271 163.301 146.767C166.746 145.437 169.869 144.227 172.992 143.017Z" fill="#8EC677"/>
<path d="M198.301 134.947C198.762 133.717 199.608 132.513 200.753 131.209C200.264 132.397 199.474 133.685 198.301 134.947Z" fill="#8EC677"/>
<path d="M208.63 134.012C208.528 134.905 208.101 135.821 207.402 136.889C207.521 136.04 207.913 135.038 208.63 134.012Z" fill="#8EC677"/>
<path d="M195.94 136.81C196.148 136.167 196.722 135.577 197.611 134.947C197.387 135.559 196.846 136.211 195.94 136.81Z" fill="#8EC677"/>
<path d="M178.047 143.36C178.544 143.15 178.985 143.137 179.751 143.189C179.478 143.65 178.879 144.046 178.136 144.205C177.99 143.969 177.991 143.558 178.047 143.36Z" fill="#8EC677"/>
<path d="M182.015 142.861C182.02 142.633 182.278 142.425 182.789 142.252C182.784 142.485 182.525 142.682 182.015 142.861Z" fill="#8EC677"/>
<path d="M157 83.736C152.951 83.2887 148.897 82.6085 144.445 81.9199C144.047 81.9116 143.75 81.7325 143.586 81.6802C142.868 80.7793 142.316 79.9307 141.708 78.7931C142.827 78.4506 144.122 78.0485 145.154 78.406C148.915 79.709 152.588 81.2658 156.64 82.8822C156.986 83.0373 156.994 83.5031 157 83.736Z" fill="#8EC677"/>
<path d="M185.043 85.693C186.754 85.3967 188.586 85.4265 190.715 85.7018C189.062 85.9713 187.113 85.9952 185.043 85.693Z" fill="#8EC677"/>
<path d="M102.15 144.172C98.9716 146.085 95.8139 148.034 92.6068 149.898C90.6996 151.007 88.7147 151.982 86.3485 152.665C84.7062 150.817 83.7656 148.803 82.1928 147.937C79.1812 146.279 78.7196 143.89 79.2067 140.939C79.4274 140.923 79.8699 140.92 80.2417 140.982C81.8939 142.345 83.1743 143.646 85.1756 145.679C86.225 143.809 88.1677 141.665 87.7196 140.872C86.7723 139.195 84.5758 138.223 82.9136 136.596C82.9695 135.498 83.0035 134.767 83.0375 134.035C83.0375 134.035 83.0189 134.025 83.03 134.03C87.9649 132.84 93.638 126.408 93.3774 122.375C95.1359 123.709 96.5704 125.353 98.0049 126.996C99.2466 128.712 100.475 130.438 101.734 132.142C102.792 133.572 103.885 134.975 105.005 137.137C105.027 138.934 105.007 139.984 104.895 141.129C104.804 141.224 104.553 141.306 104.212 141.331C103.614 141.934 103.358 142.513 103.057 143.074C103.012 143.055 103.099 143.078 102.847 143.154C102.429 143.525 102.261 143.82 102.11 144.127C102.126 144.139 102.15 144.172 102.15 144.172Z" fill="#8EC677"/>
<path d="M128.731 130.003C129.587 129.973 129.941 129.975 130.608 130.368C129.617 133.632 128.459 136.582 126.978 139.36C124.335 144.321 121.497 149.179 118.74 154.079C119.493 151.002 120.246 147.925 121.226 144.342C121.711 143.594 121.791 143.304 121.691 142.965C122.467 141.549 123.243 140.132 124.33 138.169C124.93 135.691 129.342 134.769 125.944 131.814C125.672 131.301 125.484 130.928 125.297 130.556C126.275 130.382 127.252 130.209 128.731 130.003Z" fill="#8EC677"/>
<path d="M104.987 141.034C105.007 139.984 105.027 138.934 105.052 137.493C107.539 135.079 109.96 132.973 112.518 131.05C115.947 128.473 119.532 126.367 123.564 129.782C122.844 130.371 122.405 130.496 121.63 130.473C119.506 130.844 117.718 131.362 115.616 131.925C114.571 132.67 113.841 133.369 113.111 134.069C111.682 135.379 110.254 136.69 108.75 138.313C108.675 138.626 108.706 138.714 108.445 138.832C107.477 139.674 106.77 140.397 105.795 141.092C105.346 141.054 105.166 141.044 104.987 141.034Z" fill="#8EC677"/>
<path d="M98.3921 126.996C96.5704 125.353 95.1359 123.709 93.3661 122.027C93.4303 121.329 93.8298 120.67 94.5389 119.95C97.9899 120.632 101.131 121.375 104.721 122.224C104.455 125.366 102.334 126.928 98.3921 126.996Z" fill="#8EC677"/>
<path d="M175.921 64.9309C174.72 65.7477 173.534 66.5681 172.162 67.6455C170.46 68.4049 168.942 68.9074 167.188 69.6543C162.498 70.1362 158.043 70.3738 153.296 70.3289C161.297 69.2338 169.222 67.4719 175.749 61.1856C176.062 61.0568 176.176 61.173 176.141 61.5813C176.053 62.9647 176 63.9397 175.946 64.9148C175.946 64.9148 175.937 64.9346 175.921 64.9309Z" fill="#8EC677"/>
<path d="M141.663 77.9271C141.098 77.0528 140.67 75.8207 140.358 74.2382C140.916 75.1149 141.359 76.342 141.663 77.9271Z" fill="#8EC677"/>
<path d="M118.657 154.451C121.497 149.179 124.335 144.321 126.978 139.36C128.459 136.582 129.617 133.632 130.877 130.37C131.098 129.93 131.363 129.88 132.003 129.669C133.399 129.049 134.42 128.589 135.727 128.07C137.1 128.318 138.187 128.626 139.639 129.308C141.003 130.456 142.003 131.228 142.968 132.35C142.043 137.528 144.008 140.038 151.002 143.379C151.348 145.196 151.695 146.637 152.042 148.078C151.534 148.667 151.025 149.257 150.257 149.995C142.199 155.031 135.482 160.969 130.76 169.689C128.854 171.064 127.131 171.881 126.203 173.24C124.555 175.654 123.389 178.396 121.864 180.672C119.696 178.262 123.73 173.626 118.553 172.884C118.461 172.458 118.369 172.032 118.547 170.959C118.583 167.209 118.349 164.105 118.115 161.002C118.268 158.942 118.421 156.882 118.657 154.451Z" fill="#8EC677"/>
<path d="M118.403 173.255C123.73 173.625 119.696 178.262 121.889 181.031C123.421 183.819 124.771 185.919 126.121 188.02C126.576 188.019 127.031 188.018 127.892 188.208C128.345 188.688 128.501 188.897 128.764 189.027C128.724 189.369 128.685 189.71 128.389 190.477C127.403 191.711 126.673 192.518 125.943 193.326C124.488 190.687 123.033 188.049 121.319 185.184C120.124 181.181 119.188 177.404 118.403 173.255Z" fill="#8EC677"/>
<path d="M117.862 161.282C118.349 164.105 118.583 167.209 118.605 170.634C118.132 167.824 117.871 164.693 117.862 161.282Z" fill="#8EC677"/>
<path d="M121.509 143.107C121.791 143.304 121.711 143.594 121.261 143.974C121.033 143.788 121.12 143.499 121.509 143.107Z" fill="#8EC677"/>
<path d="M262.922 121.561C261.954 119.898 260.416 117.842 260.235 115.674C259.822 110.718 259.811 105.685 260.201 100.728C260.328 99.1116 262.202 97.6322 263.653 96.0564C263.675 104.388 263.322 112.752 262.922 121.561Z" fill="#8EC677"/>
<path d="M264.156 93.8587C263.988 93.7687 263.994 93.6017 264.013 93.1837C264.194 93.1089 264.379 93.2736 264.516 93.4711C264.545 93.5116 264.396 93.675 264.156 93.8587Z" fill="#8EC677"/>
<path d="M264.192 95.936C264.024 96.0216 263.999 95.5415 263.991 95.3019C264.109 95.325 264.235 95.5877 264.192 95.936Z" fill="#8EC677"/>
<path d="M143.002 132.001C142.003 131.228 141.003 130.456 139.983 129.303C144.709 126.974 149.446 125.004 154.204 123.087C155.871 122.416 157.591 121.877 159.848 121.036C160.695 120.608 160.894 120.353 161.005 120.031C162.384 120.011 163.763 119.992 165.554 119.966C170.026 120.399 172.744 123.094 175.389 125.773C176.334 126.73 176.771 128.188 177.44 129.417C176.024 129.074 174.578 128.818 173.201 128.358C172.332 128.068 171.565 127.473 170.304 126.637C166.188 125.763 162.217 124.14 158.92 125.025C153.388 126.51 148.286 129.591 143.002 132.001Z" fill="#8EC677"/>
<path d="M160.778 120.124C160.894 120.353 160.695 120.608 160.182 120.889C160.071 120.664 160.27 120.409 160.778 120.124Z" fill="#8EC677"/>
<path d="M203.955 193.174C198.465 188.198 196.124 181.713 195.2 174.305C195.614 173.991 195.889 173.987 196.577 174.336C197.322 175.469 197.655 176.247 197.987 177.026C198.288 181.484 198.759 185.836 204.668 186.994C205.045 187.004 205.315 187.423 205.218 188.031C205.137 189.423 205.153 190.207 205.099 191.317C204.671 192.153 204.313 192.664 203.955 193.174Z" fill="#8EC677"/>
<path d="M259.531 195.278C259.938 195.111 260.157 195.106 260.692 195.196C260.71 195.734 260.412 196.178 260.115 196.622C259.857 196.228 259.6 195.835 259.531 195.278Z" fill="#8EC677"/>
<path d="M264.682 190.924C264.395 190.76 264.434 190.538 264.871 190.322C265.016 190.491 264.929 190.671 264.682 190.924Z" fill="#8EC677"/>
<path d="M209.698 28.8709C211.451 33.3236 212.865 37.6547 214.65 43.1206C210.595 43.1206 207.703 43.1206 204.353 43.1648C203.894 43.209 203.869 43.14 203.874 42.7552C203.55 41.2505 203.221 40.1306 202.892 39.0107C201.73 34.6086 200.567 30.2064 199.12 24.7253C202.926 26.2206 206.143 27.4849 209.698 28.8709Z" fill="#8EC677"/>
<path d="M202.655 39.2404C203.221 40.1306 203.55 41.2504 203.839 42.7432C203.339 41.9007 202.878 40.6854 202.655 39.2404Z" fill="#8EC677"/>
<path d="M126.089 187.666C124.771 185.919 123.421 183.819 122.046 181.36C123.389 178.396 124.555 175.654 126.203 173.24C127.131 171.881 128.854 171.064 130.617 170.001C129.363 175.769 127.711 181.54 126.089 187.666Z" fill="#8EC677"/>
<path d="M129.778 182.183C130.002 182.654 129.981 183.309 129.711 184.043C129.487 183.537 129.51 182.953 129.778 182.183Z" fill="#8EC677"/>
<path d="M78.986 140.955C78.7196 143.89 79.1813 146.279 82.1929 147.937C83.7657 148.803 84.7062 150.817 85.9658 152.662C85.0205 153.78 84.0417 154.548 83.0283 155.655C82.5502 156.049 82.1069 156.105 81.0872 155.847C77.3353 155.035 74.1598 154.538 70.9844 154.041C70.4261 153.858 69.8678 153.675 69.1296 153.254C67.5469 150.698 66.1441 148.379 64.3923 146.029C63.7297 144.895 63.416 143.793 63.4521 142.191C65.5272 141.16 67.2525 140.628 68.9778 140.097C70.3634 140.042 71.749 139.987 73.7899 140.227C75.9588 140.666 77.4724 140.81 78.986 140.955Z" fill="#8EC677"/>
<path d="M68.7817 139.828C67.2525 140.628 65.5272 141.16 63.4839 141.845C63.0776 139.847 62.9893 137.694 63.2083 135.538C65.2055 136.876 66.8955 138.217 68.7817 139.828Z" fill="#8EC677"/>
<path d="M79.2067 140.939C77.4724 140.81 75.9588 140.665 74.206 140.226C76.7782 138.045 79.5896 136.159 82.7192 134.154C83.0035 134.767 82.9695 135.498 82.6299 136.748C81.5061 138.484 80.688 139.702 79.8699 140.92C79.8699 140.92 79.4274 140.923 79.2067 140.939Z" fill="#8EC677"/>
<path d="M104.895 141.129C105.166 141.044 105.346 141.054 105.826 141.329C106.126 141.594 106.225 142.063 106.225 142.063C105.054 143.374 103.882 144.684 102.337 145.98C102.002 145.567 102.042 145.169 102.116 144.471C102.15 144.172 102.126 144.139 102.36 144.05C102.762 143.666 102.931 143.372 103.099 143.079C103.099 143.079 103.012 143.055 103.339 142.96C103.962 142.346 104.257 141.826 104.553 141.306C104.553 141.306 104.804 141.224 104.895 141.129Z" fill="#8EC677"/>
<path d="M176.389 64.9432C176 63.9397 176.053 62.9647 176.199 61.639C177.302 60.9362 178.313 60.584 179.895 60.3774C182.643 60.6833 184.82 60.8435 186.998 61.4276C187.054 62.7023 187.111 63.5531 187.168 64.4038C187.168 64.4038 187.265 64.7253 187.207 64.8832C186.05 65.0312 184.95 65.0213 183.441 65.0153C180.965 65.0033 178.899 64.9875 176.389 64.9432Z" fill="#8EC677"/>
<path d="M186.998 61.0037C184.82 60.8435 182.643 60.6833 180.187 60.2284C181.684 58.6414 183.459 57.3492 185.574 55.9684C186.275 57.0221 186.638 58.1643 187.004 59.9117C187.008 60.5168 186.998 61.0037 186.998 61.0037Z" fill="#8EC677"/>
<path d="M125.992 193.64C126.673 192.518 127.403 191.711 128.419 190.734C128.706 192.442 128.706 194.319 128.706 196.196C128.385 196.274 128.064 196.352 127.744 196.43C127.176 195.605 126.609 194.78 125.992 193.64Z" fill="#8EC677"/>
<path d="M71.2079 154.348C74.1598 154.538 77.3353 155.035 80.7523 155.816C77.8063 155.618 74.6189 155.136 71.2079 154.348Z" fill="#8EC677"/>
<path d="M199.623 159.117C201.445 160.879 201.883 162.479 198.315 162.965C198.4 161.734 198.864 160.51 199.623 159.117Z" fill="#8EC677"/>
<path d="M222.407 109.488C222.433 109.546 222.382 109.431 222.407 109.488Z" fill="#8EC677"/>
<path d="M198.184 176.743C197.655 176.247 197.322 175.469 196.989 174.352C197.242 173.209 197.496 172.402 198.231 171.295C199.475 170.329 200.238 169.665 201.001 169.001C203.742 172.756 199.311 173.993 198.184 176.743Z" fill="#8EC677"/>
<path d="M200.679 169.026C200.238 169.665 199.475 170.329 198.359 171C198.79 170.355 199.574 169.704 200.679 169.026Z" fill="#8EC677"/>
<path d="M186.998 61.4276C186.998 61.0037 187.008 60.5168 187.01 60.2737C187.916 60.0554 188.819 60.0803 190.172 60.1927C189.661 61.5283 188.7 62.7763 187.453 64.2141C187.111 63.5531 187.054 62.7023 186.998 61.4276Z" fill="#8EC677"/>
<path d="M142.968 132.35C148.286 129.592 153.388 126.51 158.92 125.025C162.217 124.14 166.188 125.763 169.928 126.629C167.555 127.335 165.067 127.494 162.68 128.074C161.295 128.411 160.074 129.424 158.78 130.132C158.963 130.617 159.145 131.102 159.328 131.587C161.67 131.846 164.011 132.104 166.94 132.427C165.816 133.856 165.062 134.814 163.63 136.634C167.359 136.87 170.343 137.058 173.789 137.276C173.499 139.119 173.256 140.666 173.002 142.615C169.869 144.227 166.746 145.437 163.298 146.403C162.592 145.487 162.337 144.688 161.81 144.165C158.539 140.919 154.658 142.945 151.002 143.002C144.008 140.038 142.043 137.528 142.968 132.35Z" fill="#8EC677"/>
<path d="M151.002 143.379C154.658 142.945 158.539 140.919 161.81 144.165C162.337 144.688 162.592 145.487 162.976 146.522C159.619 147.271 156.257 147.657 152.469 148.06C151.695 146.637 151.348 145.196 151.002 143.379Z" fill="#8EC677"/>
<path d="M80.2417 140.982C80.688 139.702 81.5062 138.484 82.608 137.114C84.5758 138.223 86.7723 139.195 87.7196 140.872C88.1677 141.665 86.225 143.809 85.1756 145.679C83.1743 143.646 81.8939 142.345 80.2417 140.982Z" fill="#8EC677"/>
</svg>
