<svg width="801" height="523" viewBox="0 0 801 523" fill="none" xmlns="http://www.w3.org/2000/svg">
<g clip-path="url(#clip0_3_2)">
<path d="M332.986 70.435C335.786 64.79 340.271 60.104 343.011 54.429C345.751 48.754 346.285 41.158 341.719 36.814C337.842 33.126 331.768 33.074 327.132 30.402C315.319 23.596 315.332 1.97699 301.832 0.108991C295.265 -0.799009 289.323 4.12499 285.354 9.43599C281.385 14.747 278.222 20.942 272.717 24.636C266.485 28.818 258.429 29 251.509 31.905C238.242 37.474 231.286 51.795 225.47 64.957C221.723 73.435 217.891 82.58 219.629 91.685C215.85 94.036 217.534 100.36 221.306 102.722C225.078 105.084 229.814 105.032 234.145 106.055C243.245 108.205 250.701 115.455 254.235 124.112C256.989 130.862 257.552 138.273 258.084 145.543L260.85 183.391C261.26 189.004 261.798 194.969 265.215 199.441C268.632 203.913 276.03 205.787 279.87 201.674C283.54 197.743 281.887 191.519 281.813 186.141C281.739 180.763 286.6 174.067 291.184 176.88L292.801 173.212C303.271 169.463 312.439 162.777 319.208 153.953C325.976 145.129 330.059 134.541 330.966 123.457C332.133 105.601 325.027 86.458 332.986 70.435Z" fill="#E6E6E6"/>
<path d="M343.683 183.644C344.694 182.691 345.412 181.468 345.752 180.121C346.091 178.773 346.038 177.356 345.599 176.038C345.159 174.719 344.352 173.554 343.272 172.679C342.192 171.804 340.884 171.257 339.503 171.101L339.52 171.707C337.549 172.858 335.302 173.448 333.02 173.415C330.746 173.379 328.483 173.737 326.332 174.474C325.262 174.863 324.336 175.567 323.674 176.492C323.012 177.418 322.645 178.522 322.623 179.66C322.748 180.532 323.081 181.361 323.595 182.077C324.109 182.793 324.788 183.374 325.575 183.771C327.154 184.549 328.849 185.063 330.594 185.295C335.094 186.142 340.356 186.782 343.683 183.644Z" fill="#E6E6E6"/>
<path d="M431.365 70.734C433.25 69.4537 434.85 67.7981 436.065 65.871C436.653 64.8962 436.933 63.7662 436.868 62.6293C436.803 61.4925 436.395 60.402 435.699 59.501C434.281 58.2709 432.457 57.6119 430.58 57.652C425.484 57.2716 420.363 57.8756 415.495 59.431L430.489 72.715L431.365 70.734Z" fill="#E6E6E6"/>
<path d="M406.37 82.251C408.39 84.481 407.746 87.94 407.17 90.894C406.594 93.848 406.525 97.539 409.07 99.151C411.27 100.551 414.363 99.408 415.97 97.357C417.409 95.1709 418.286 92.6634 418.524 90.057C419.316 86.2665 419.673 82.3983 419.59 78.527C419.494 74.6272 418.118 70.8674 415.674 67.827C413.939 65.849 411.629 64.4637 409.067 63.8652C406.505 63.2668 403.82 63.4852 401.389 64.49L403.711 64.375C402.023 66.5424 400.743 68.9987 399.933 71.624C399.545 72.9429 399.518 74.3416 399.854 75.6748C400.19 77.0079 400.876 78.2268 401.842 79.205C403.224 80.396 405.143 80.897 406.37 82.251Z" fill="#E6E6E6"/>
<path d="M520.308 44.854L520.72 43.582C518.993 44.5804 517.661 46.1421 516.948 48.0055C516.235 49.8689 516.184 51.9206 516.804 53.817C518.132 52.7696 519.157 51.3868 519.773 49.8114C520.389 48.2359 520.574 46.5246 520.308 44.854Z" fill="#E6E6E6"/>
<path d="M497.862 63.052C500.061 61.8068 501.938 60.0637 503.341 57.9624C504.745 55.8611 505.637 53.4601 505.945 50.952C506.183 49.3928 506.003 47.7984 505.422 46.332C505.124 45.6037 504.65 44.9605 504.044 44.4594C503.437 43.9584 502.716 43.615 501.944 43.46L501.004 44.94C499.655 43.779 497.39 44.973 496.823 46.66C496.457 48.4111 496.609 50.2309 497.261 51.897C497.912 53.5732 497.882 55.4371 497.179 57.092C496.421 58.0651 495.569 58.9609 494.634 59.766C494.177 60.1815 493.879 60.7428 493.791 61.3539C493.702 61.9649 493.828 62.5878 494.148 63.116C495.029 64.128 496.687 63.704 497.862 63.052Z" fill="#E6E6E6"/>
<path d="M488.293 54.781C489.1 53.3329 489.481 51.6863 489.393 50.031L487.336 49.386C486.021 49.9186 484.854 50.762 483.936 51.844C483.657 52.1234 483.444 52.461 483.31 52.8326C483.177 53.2043 483.128 53.6007 483.166 53.9936C483.204 54.3865 483.329 54.7661 483.531 55.1052C483.733 55.4443 484.008 55.7346 484.335 55.9551C484.662 56.1757 485.034 56.3212 485.425 56.3811C485.815 56.441 486.213 56.4138 486.592 56.3016C486.97 56.1894 487.319 55.9949 487.614 55.732C487.908 55.4691 488.141 55.1444 488.295 54.781H488.293Z" fill="#E6E6E6"/>
<path d="M588.811 44.376C588.997 44.532 589.182 44.692 589.368 44.849C589.532 44.815 589.688 44.749 589.855 44.732L588.811 44.376Z" fill="#E6E6E6"/>
<path d="M585.516 62.425L591.18 57.843C592.183 57.1331 593.038 56.2343 593.697 55.197C594.147 54.215 594.341 53.1351 594.262 52.0578C594.182 50.9805 593.831 49.941 593.241 49.036C592.196 47.432 590.887 46.0166 589.369 44.85C587.701 45.2443 586.236 46.2366 585.251 47.639C584.266 49.0414 583.83 50.7564 584.025 52.459C584.366 54.625 585.725 56.94 584.616 58.831C584.184 59.567 583.44 60.068 582.942 60.761C582.444 61.454 582.282 62.561 582.967 63.068C583.727 63.634 584.779 63.021 585.516 62.425Z" fill="#E6E6E6"/>
<path d="M589.645 71.775C590.347 71.8129 591.049 71.6993 591.703 71.4419C592.358 71.1845 592.949 70.7892 593.437 70.283C595.961 68.2152 598.169 65.7895 599.991 63.083L587.251 67.118L588.575 68.667C587.394 69.435 588.266 71.51 589.645 71.775Z" fill="#E6E6E6"/>
<path d="M601.553 80.52C601.812 81.1825 602.281 81.7419 602.888 82.1126C603.496 82.4833 604.207 82.645 604.915 82.573C605.62 82.4792 606.296 82.2318 606.895 81.8484C607.494 81.465 608.002 80.9549 608.382 80.354C609.028 79.4017 609.408 78.2941 609.482 77.1458C609.557 75.9975 609.323 74.8502 608.805 73.8226C608.287 72.7949 607.504 71.9243 606.537 71.3008C605.57 70.6772 604.454 70.3235 603.304 70.276L604.477 72.068C604.776 75.127 600.618 77.592 601.553 80.52Z" fill="#E6E6E6"/>
<path d="M684.063 114.022C685.212 114.879 686.608 115.341 688.041 115.338C689.475 115.334 690.868 114.866 692.013 114.003C692.755 113.369 693.359 112.589 693.786 111.71C694.212 110.832 694.453 109.876 694.493 108.9C694.533 107.925 694.371 106.951 694.017 106.042C693.663 105.132 693.125 104.304 692.437 103.612L690.267 104.823C689.064 104.05 687.607 103.773 686.204 104.052C684.801 104.331 683.561 105.143 682.744 106.317C682.012 107.548 681.742 109 681.984 110.413C682.225 111.825 682.963 113.105 684.063 114.022Z" fill="#E6E6E6"/>
<path d="M709.293 116.878C710.35 116.571 711.31 115.998 712.082 115.214C712.854 114.43 713.412 113.461 713.702 112.399L709.483 111.845C708.31 110.959 706.943 110.362 705.496 110.104C704.77 109.995 704.029 110.139 703.397 110.512C702.764 110.885 702.279 111.463 702.023 112.151C701.933 112.736 701.995 113.334 702.202 113.889C702.409 114.443 702.755 114.935 703.206 115.318C704.002 116.077 704.98 116.62 706.046 116.893C707.111 117.166 708.23 117.162 709.293 116.879V116.878Z" fill="#E6E6E6"/>
<path d="M691.874 125.315C691.948 126.001 692.216 126.652 692.647 127.192C693.077 127.731 693.652 128.137 694.305 128.362C695.018 128.7 695.816 128.817 696.596 128.696C697.376 128.575 698.102 128.223 698.679 127.685C698.934 127.397 699.116 127.053 699.211 126.681C699.306 126.309 699.311 125.92 699.225 125.545C699.14 125.171 698.966 124.822 698.719 124.529C698.471 124.235 698.157 124.004 697.803 123.856L694.64 123.281C693.416 122.643 691.854 123.935 691.874 125.315Z" fill="#E6E6E6"/>
<path d="M508.323 147.554L505.875 145.318C506.526 146.226 507.36 146.987 508.323 147.554Z" fill="#E6E6E6"/>
<path d="M489.622 134.39C491.129 141.39 498.669 147.09 505.513 144.99L505.874 145.32C503.695 142.337 503.326 137.92 503.835 134.087C504.78 127.511 507.366 121.28 511.354 115.967C515.342 110.654 520.604 106.431 526.654 103.687C528.311 103.17 529.793 102.204 530.936 100.897C531.911 99.471 531.547 97.024 529.867 96.621C528.954 96.5154 528.033 96.7273 527.258 97.221L514.538 103.481C508.113 106.643 501.561 109.896 496.515 114.976C491.469 120.056 488.115 127.39 489.622 134.39Z" fill="#E6E6E6"/>
<path d="M284.297 375.095C272.446 366.611 259.465 359.827 245.733 354.942C237.293 351.942 228.224 349.652 219.433 351.356C214.611 352.354 210.091 354.475 206.243 357.547C202.394 360.619 199.324 364.556 197.283 369.038C195.316 373.552 194.392 378.451 194.577 383.371C194.763 388.292 196.054 393.107 198.355 397.46C202.41 405.06 209.433 411.112 211.781 419.399C213.364 424.986 212.614 430.935 211.852 436.692L207.182 471.987C205.765 482.698 204.382 493.845 207.775 504.103C211.168 514.361 220.843 523.403 231.593 522.315L233.723 522.155C226.612 517.32 224.623 507.309 226.736 498.975C228.849 490.641 234.227 483.575 239.473 476.761L286.182 416.108C292.482 407.928 299.144 397.818 295.782 388.056C293.871 382.506 289.069 378.512 284.297 375.095Z" fill="#E6E6E6"/>
<path d="M178.19 323.987C176.613 323.453 174.948 324.64 174.021 326.023C173.272 327.508 172.391 328.924 171.39 330.252C168.965 332.752 164.545 332.252 161.929 329.952C159.313 327.652 158.18 324.095 157.672 320.652C157.063 316.517 157.326 311.904 160.055 308.739C162.864 305.48 167.482 304.606 171.731 303.929C176.12 303.229 181.037 302.647 184.631 305.259C186.896 306.904 188.216 309.559 190.314 311.412C192.412 313.265 196.144 313.967 197.723 311.656C198.136 310.837 198.345 309.93 198.332 309.012C198.319 308.095 198.084 307.194 197.647 306.387C196.76 304.779 196.226 303.001 196.081 301.17C196.187 298.629 198.227 296.61 200.315 295.157C202.403 293.704 204.76 292.451 206.13 290.309C207.815 287.673 207.636 284.278 208.681 281.33C211.21 274.194 220.238 271.02 222.867 263.92C223.5 262.426 223.571 260.754 223.067 259.212C221.967 256.384 218.991 256.939 218.809 253.483C218.634 250.177 221.392 246.934 224.195 245.554C228.059 243.654 232.563 243.805 236.869 243.689C241.175 243.573 245.813 243.001 248.969 240.074C249.992 239.02 250.78 237.762 251.283 236.382C251.786 235.002 251.992 233.531 251.887 232.066C251.783 230.601 251.37 229.174 250.676 227.88C249.982 226.586 249.022 225.452 247.86 224.554C245.505 222.928 242.529 222.362 240.238 220.648C237.384 218.513 236.038 214.956 233.811 212.17C231.962 210.049 229.847 208.175 227.517 206.597L221.796 202.352C218.348 199.794 214.761 197.171 210.566 196.259C206.371 195.347 201.375 196.637 199.274 200.381C198.445 202.05 197.993 203.88 197.948 205.742C197.757 210.127 197.94 214.52 198.495 218.874L199.534 229.388C199.844 232.53 199.511 236.672 196.461 237.488C189.695 239.297 191.978 229.288 190.478 226.228C188.178 221.537 177.628 219.284 173.116 217.328C170.298 216.107 167.325 214.759 165.624 212.203C163.506 209.021 163.941 204.691 165.602 201.249C167.263 197.807 169.968 195.005 172.426 192.078C174.931 189.095 177.213 185.931 179.492 182.771L187.421 171.776C190.811 167.076 194.374 161.339 192.449 155.876C192.032 155.145 191.408 154.553 190.656 154.174C189.904 153.796 189.057 153.648 188.221 153.749C187.385 153.85 186.598 154.195 185.957 154.741C185.317 155.287 184.851 156.011 184.62 156.82C183.776 159.771 186.027 163.538 183.874 165.725C183.136 166.319 182.212 166.634 181.265 166.616C180.318 166.598 179.408 166.247 178.693 165.625C177.297 164.337 176.233 162.731 175.593 160.943C172.984 155.143 170.442 149.31 167.763 143.543C166.916 141.72 166.033 138.599 163.463 138.906C161.236 139.173 160.033 142.419 160.11 144.306C160.223 147.048 161.738 149.498 162.896 151.986C164.054 154.474 164.864 157.461 163.596 159.893C161.986 162.972 157.907 163.664 154.434 163.562C147.888 163.364 141.473 161.671 135.681 158.614C135.53 161.831 135.378 165.049 135.227 168.267L121.397 162.478L118.711 161.354C114.822 159.726 110.929 158.097 106.925 156.775C104.652 156.025 102.348 155.375 100.045 154.726L95.845 153.542C93.0821 152.563 90.1515 152.145 87.225 152.312C84.15 152.698 81.408 154.35 78.564 155.584C72.22 158.338 64.014 155.567 57.215 155.518C54.5181 151.581 50.8771 148.383 46.6251 146.216C42.3731 144.05 37.6457 142.984 32.8754 143.116C28.105 143.248 23.4439 144.574 19.3184 146.973C15.1929 149.372 11.7347 152.767 9.26 156.847C8.06475 158.914 7.00031 161.055 6.07299 163.255L3.30498 169.455C1.95198 172.488 0.56898 175.683 0.83498 178.993C1.10098 182.303 3.63497 185.685 6.95897 185.655C-0.872026 189.2 -2.50102 201.606 4.14798 207.055C5.98898 208.563 8.24798 209.55 9.90398 211.255C11.1548 212.547 11.9913 214.183 12.3063 215.953C12.6212 217.723 12.4003 219.547 11.6717 221.191C10.9431 222.835 9.74017 224.224 8.21706 225.18C6.69395 226.135 4.92012 226.614 3.12299 226.555C7.76221 228.348 12.8723 228.515 17.6185 227.028C22.3648 225.541 26.4666 222.489 29.254 218.37C32.097 213.919 33.332 208.358 37.2 204.761C42.322 199.998 50.782 200.367 56.689 204.113C62.596 207.859 66.333 214.236 68.904 220.741C72.272 229.266 74.428 239.007 81.604 244.709C85.074 247.466 89.468 249.017 92.536 252.216C96.904 256.772 97.659 263.649 97.561 269.96C97.463 276.271 96.783 282.819 99.082 288.697C101.381 294.575 107.971 299.41 113.882 297.197C112.189 302.221 112.241 307.67 114.031 312.66C115.82 317.651 119.242 321.891 123.742 324.694L120.512 304.659C125.878 306.17 129.357 311.375 131.365 316.575C133.373 321.775 134.435 327.4 137.347 332.154C141.932 339.64 150.235 342.866 158.681 342.838C167.805 342.807 171.269 338.457 177.281 332.05C178.489 330.957 179.406 329.58 179.949 328.044C180.194 327.269 180.151 326.432 179.828 325.687C179.505 324.941 178.923 324.338 178.19 323.987Z" fill="#E6E6E6"/>
<path d="M204.026 323.654L188.726 321.254L196.747 326.076C198.975 327.559 201.398 328.727 203.947 329.546C205.226 329.948 206.573 330.083 207.906 329.943C209.239 329.802 210.529 329.39 211.696 328.73L211.043 327.482C210.017 324.877 206.788 324.088 204.026 323.654Z" fill="#E6E6E6"/>
<path d="M200.561 352.002L200.596 351.913C200.288 351.402 199.833 350.994 199.291 350.743C198.749 350.491 198.145 350.408 197.555 350.503C196.38 350.713 195.179 350.733 193.998 350.561C193.248 350.268 192.579 349.799 192.047 349.194C191.515 348.59 191.135 347.866 190.94 347.085C190.433 345.56 190.283 343.928 189.706 342.428C189.289 341.242 188.553 340.194 187.578 339.399C186.604 338.604 185.429 338.093 184.183 337.923C182.933 337.823 181.693 338.218 180.732 339.025C179.772 339.831 179.167 340.983 179.049 342.232C179.147 343.518 179.555 344.761 180.239 345.854L181.889 349.028C182.354 349.976 182.889 350.889 183.489 351.758C184.463 353.1 185.736 354.196 187.208 354.959C188.679 355.723 190.308 356.133 191.966 356.156C193.624 356.18 195.264 355.817 196.757 355.095C198.249 354.374 199.553 353.314 200.565 352.001L200.561 352.002Z" fill="#E6E6E6"/>
<path d="M170.776 80.6069C174.659 82.8959 179.522 84.4739 181.367 88.5869L182.432 88.9309L178.949 93.2589C177.514 95.0419 176.005 97.0289 176.039 99.3169C176.085 102.469 179.117 104.846 182.18 105.589C185.449 106.261 188.851 105.695 191.726 104.001C194.6 102.306 196.743 99.6043 197.738 96.4189C198.102 95.0899 198.253 93.7119 198.572 92.3729C199.503 89.1949 200.909 86.1755 202.741 83.4169L233.677 31.3719C234.961 29.2109 236.285 26.6269 235.319 24.3059C234.804 23.3245 234.006 22.5198 233.029 21.9956C232.052 21.4715 230.941 21.2518 229.838 21.3649C227.637 21.6328 225.514 22.3474 223.599 23.4649C222.748 21.9704 221.548 20.7047 220.1 19.7765C218.652 18.8483 217.001 18.2853 215.288 18.1359C211.862 17.8715 208.416 18.1715 205.088 19.0239C197.568 20.1587 190.317 22.6498 183.688 26.3759C180.061 28.2089 176.07 30.4759 175.018 34.3989C173.724 39.2269 177.895 44.1479 182.697 45.5359C187.499 46.9239 192.625 45.7579 197.486 44.5899C198.035 46.9462 197.806 49.4171 196.833 51.6322C195.86 53.8474 194.195 55.6875 192.088 56.8768C189.982 58.0661 187.546 58.5406 185.147 58.2291C182.747 57.9176 180.513 56.8369 178.78 55.1489C175.296 51.7569 173.59 45.8669 168.806 44.9919C164.038 44.1189 160.248 49.2049 159.195 53.9369C158.166 59.0335 158.724 64.3232 160.795 69.0925C162.866 73.8618 166.349 77.8814 170.776 80.6089V80.6069Z" fill="#E6E6E6"/>
<path d="M230.584 164.085C228.287 157.613 225.268 151.419 221.584 145.623C218.794 141.038 215.35 136.885 211.361 133.295C207.714 130.146 203.522 127.691 198.992 126.05C194.592 124.46 189.699 123.674 185.254 125.124C180.809 126.574 177.027 130.707 177.117 135.382C177.217 140.551 181.739 144.594 186.453 146.718C191.167 148.842 196.41 149.766 200.853 152.403C203.877 154.237 206.404 156.785 208.212 159.825C210.02 162.864 211.054 166.301 211.223 169.833L212.343 171.685C209.806 172.524 207.439 173.811 205.356 175.485C204.324 176.336 203.536 177.445 203.07 178.699C202.604 179.953 202.477 181.307 202.702 182.626C203.479 185.756 206.675 187.552 209.565 188.984L225.586 196.919C222.867 188.811 231.769 181.266 232.262 172.729C232.281 169.762 231.71 166.821 230.581 164.077L230.584 164.085Z" fill="#E6E6E6"/>
<path d="M96.306 142.194C99.546 144.71 104.526 143.533 107.494 140.702C110.462 137.871 111.907 133.842 113.255 129.968C112.763 133.802 112.81 137.687 113.394 141.508C113.698 143.419 114.396 145.246 115.443 146.873C116.49 148.5 117.863 149.892 119.476 150.961C120.941 151.763 122.519 152.336 124.157 152.661C131.772 154.394 139.73 153.826 147.021 151.028L147.086 148.535C143.423 148.953 140.652 144.935 140.41 141.257C140.168 137.579 141.503 133.971 141.621 130.286C141.739 126.601 139.963 122.296 136.335 121.641C136.97 122.916 137.201 124.354 136.998 125.764C136.796 127.174 136.168 128.489 135.2 129.534C134.232 130.578 132.968 131.303 131.578 131.612C130.187 131.921 128.736 131.799 127.416 131.263C123.216 129.556 121.692 124.44 118.447 121.275C116.442 119.492 113.954 118.341 111.297 117.967C108.64 117.593 105.931 118.014 103.512 119.175C101.124 120.394 99.0282 122.116 97.3707 124.224C95.7132 126.332 94.5331 128.775 93.912 131.383C92.925 135.172 93.217 139.795 96.306 142.194Z" fill="#E6E6E6"/>
<path d="M196.284 115.94L196.434 115.696C195.534 113.084 192.726 111.553 189.99 111.165C187.232 110.983 184.462 111.074 181.722 111.438C178.957 111.796 176.153 111.178 173.794 109.692C171.911 108.284 170.838 106.069 169.332 104.262C167.826 102.455 165.389 100.97 163.202 101.834C160.834 102.769 160.202 106.088 161.351 108.36C162.704 110.54 164.745 112.207 167.151 113.097C176.268 117.282 186.526 118.283 196.28 115.94H196.284Z" fill="#E6E6E6"/>
<path d="M165.164 123.768C164.408 124.323 163.896 125.149 163.735 126.073C163.574 126.997 163.776 127.948 164.299 128.726C164.822 129.505 165.625 130.051 166.541 130.252C167.458 130.452 168.416 130.29 169.216 129.801L170.016 130.59C171.079 128.69 171.516 126.138 170.158 124.435C169.554 123.729 168.71 123.27 167.789 123.147C166.867 123.024 165.933 123.246 165.165 123.769L165.164 123.768Z" fill="#E6E6E6"/>
<path d="M155.816 130.593C155.828 129.913 155.633 129.246 155.259 128.679C154.884 128.111 154.346 127.671 153.716 127.415C153.287 127.341 152.848 127.356 152.425 127.456C152.001 127.557 151.603 127.742 151.253 128.001C150.904 128.26 150.61 128.587 150.39 128.962C150.17 129.337 150.028 129.753 149.973 130.185C149.907 131.064 150.023 131.948 150.312 132.781C150.602 133.613 151.06 134.378 151.658 135.026C152.006 135.548 152.46 135.991 152.991 136.325C153.523 136.658 154.119 136.875 154.74 136.962C155.992 137.003 157.269 135.694 156.761 134.549L154.849 134.512C155.438 133.286 155.768 131.952 155.817 130.593H155.816Z" fill="#E6E6E6"/>
<path d="M118.431 111.015L120.537 112.722C121.753 113.773 123.067 114.706 124.46 115.508C126.897 116.858 129.763 117.209 132.454 116.487C133.783 116.108 134.994 115.401 135.978 114.431C136.961 113.461 137.684 112.258 138.081 110.935C138.92 107.772 137.551 104.487 136.211 101.502C135.905 100.648 135.401 99.8781 134.739 99.257C134.4 98.9563 133.968 98.782 133.515 98.7638C133.063 98.7456 132.618 98.8845 132.256 99.157C131.994 99.4835 131.819 99.8716 131.749 100.285C131.679 100.697 131.716 101.121 131.856 101.516C132.144 102.303 132.276 103.138 132.244 103.975C132.11 104.801 131.244 105.581 130.481 105.239L130.359 108.049C126.714 106.204 124.786 101.295 120.729 100.811C119.818 100.702 118.896 100.846 118.061 101.226C117.227 101.606 116.513 102.208 115.997 102.966C115.481 103.724 115.183 104.609 115.136 105.525C115.089 106.441 115.294 107.352 115.729 108.159C116.433 109.279 117.35 110.248 118.429 111.013L118.431 111.015Z" fill="#E6E6E6"/>
<path d="M109.748 98.8821C110.591 98.3039 111.259 97.5041 111.676 96.5708C112.094 95.6376 112.246 94.6071 112.115 93.5931C112.014 93.1019 111.806 92.6391 111.506 92.2374C111.206 91.8358 110.821 91.5051 110.379 91.269C109.937 91.0329 109.448 90.8972 108.947 90.8714C108.446 90.8457 107.946 90.9306 107.482 91.1201C106.441 91.899 105.709 93.0218 105.417 94.289L102.535 102.419L104.15 101.244C106.148 100.814 108.048 100.013 109.75 98.8821H109.748Z" fill="#E6E6E6"/>
<path d="M128.458 82.251C128.746 81.8872 128.952 81.4647 129.059 81.0131C129.167 80.5615 129.174 80.0918 129.08 79.6371C128.987 79.1824 128.795 78.7537 128.518 78.3812C128.241 78.0087 127.886 77.7014 127.477 77.481L125.458 77.292C124.999 77.4081 124.573 77.6303 124.216 77.9406C123.858 78.2509 123.578 78.6408 123.398 79.0789C123.218 79.517 123.143 79.9912 123.18 80.4634C123.217 80.9356 123.363 81.3927 123.608 81.7979C123.854 82.2031 124.19 82.5452 124.592 82.7968C124.993 83.0483 125.447 83.2023 125.919 83.2464C126.391 83.2904 126.866 83.2233 127.307 83.0505C127.748 82.8776 128.142 82.6038 128.458 82.251Z" fill="#E6E6E6"/>
<path d="M147.036 85.367C148.92 86.267 151.305 87.127 152.944 85.833C153.429 85.3935 153.79 84.8339 153.991 84.2105C154.191 83.5871 154.224 82.9219 154.085 82.282C153.791 81.0053 153.222 79.8079 152.419 78.773C149.912 75.1742 146.727 72.0991 143.043 69.72L142.132 70.904C140.86 74.204 139.632 78.065 141.406 81.129C142.603 83.193 144.883 84.34 147.036 85.367Z" fill="#E6E6E6"/>
<path d="M161.071 88.3079L164.594 89.902C164.249 89.2995 163.723 88.8211 163.09 88.5349C162.458 88.2487 161.751 88.1693 161.071 88.3079Z" fill="#E6E6E6"/>
<path d="M151.577 99.393L149.912 99.942C148.496 102.268 149.112 105.242 149.769 107.885C150.185 109.556 151.083 111.611 152.803 111.535C154.477 111.461 155.217 109.435 155.538 107.788C156.039 106.002 156.094 104.12 155.696 102.308C155.469 101.411 154.93 100.625 154.175 100.09C153.419 99.5559 152.498 99.3086 151.577 99.393Z" fill="#E6E6E6"/>
<path d="M125.029 91.564L126.261 92.064C126.55 92.0234 126.817 91.8887 127.022 91.6807C127.226 91.4727 127.357 91.2031 127.392 90.9136C127.428 90.624 127.368 90.3308 127.22 90.0793C127.072 89.8277 126.845 89.632 126.575 89.5223C126.305 89.4126 126.006 89.3951 125.725 89.4725C125.443 89.5499 125.195 89.7179 125.019 89.9504C124.843 90.183 124.749 90.4672 124.75 90.7589C124.752 91.0506 124.85 91.3336 125.029 91.564Z" fill="#E6E6E6"/>
<path d="M187.131 185.756C186.534 185.769 185.949 185.925 185.425 186.21C184.901 186.496 184.453 186.902 184.117 187.396C183.782 187.89 183.57 188.456 183.498 189.049C183.426 189.641 183.497 190.242 183.705 190.802C184.915 193.402 189.081 193.418 190.932 191.222C191.406 190.598 191.746 189.883 191.93 189.121C192.114 188.36 192.138 187.568 192.001 186.796C191.863 186.025 191.568 185.29 191.132 184.639C190.696 183.988 190.13 183.434 189.47 183.012L187.131 185.756Z" fill="#E6E6E6"/>
<path d="M247.134 247.462C246.65 247.591 246.196 247.816 245.801 248.123C245.405 248.431 245.075 248.814 244.83 249.251C244.585 249.689 244.43 250.17 244.374 250.668C244.319 251.166 244.363 251.671 244.506 252.151L247.965 252.391L251.479 250.627C251.408 250.131 251.239 249.654 250.981 249.225C250.722 248.795 250.381 248.422 249.976 248.127C249.571 247.831 249.111 247.62 248.623 247.506C248.135 247.392 247.629 247.376 247.135 247.461L247.134 247.462Z" fill="#E6E6E6"/>
<path d="M233.077 251.74C232.087 252.442 231.292 253.385 230.767 254.48C230.242 255.575 230.004 256.785 230.077 257.997C230.19 259.205 230.684 260.347 231.488 261.256C232.292 262.165 233.365 262.794 234.551 263.053C235.748 263.24 236.971 262.966 237.973 262.286C238.976 261.606 239.683 260.57 239.951 259.389C240.536 255.812 236.691 253.189 235.309 249.84L233.077 251.74Z" fill="#E6E6E6"/>
<path d="M367.409 228.112C367.774 230.798 365.354 233.15 365.264 235.859C365.157 239.073 368.656 241.574 371.856 241.259C373.444 240.984 374.947 240.344 376.247 239.39C377.546 238.435 378.606 237.192 379.344 235.759L379.413 235.459L374.737 230.173C372.823 228.009 370.793 225.546 370.868 222.658C370.905 221.234 371.468 219.858 371.434 218.431C371.359 217.407 371.131 216.399 370.756 215.443C370.334 214.183 369.756 212.764 368.501 212.343C366.926 211.811 365.336 213.207 364.584 214.69C363.908 216.058 363.579 217.572 363.627 219.097C363.675 220.622 364.098 222.112 364.859 223.435C365.769 224.976 367.167 226.335 367.409 228.112Z" fill="#E6E6E6"/>
<path d="M352.714 237.562C353.055 237.746 353.432 237.854 353.818 237.879C354.205 237.904 354.592 237.845 354.954 237.706C356.343 237.47 357.678 236.984 358.895 236.274C359.498 235.91 359.993 235.392 360.33 234.773C360.667 234.155 360.834 233.458 360.814 232.754C360.604 231.868 360.135 231.063 359.468 230.443C358.8 229.824 357.964 229.416 357.064 229.272C356.44 229.052 355.771 228.989 355.116 229.089C354.462 229.189 353.842 229.449 353.312 229.845C352.151 230.935 352.289 232.784 352.512 234.36L352.267 234.771C352.057 235.744 351.914 236.954 352.714 237.562Z" fill="#E6E6E6"/>
<path d="M598.067 352.336L597.055 349.821C596.593 350.959 596.765 352.124 598.067 352.336Z" fill="#E6E6E6"/>
<path d="M800.46 175.982C796.133 171.288 793.484 168.582 790.752 162.763C789.265 159.554 787.007 156.763 784.179 154.639C781.35 152.515 778.04 151.125 774.544 150.592C765.568 149.113 756.395 151.455 747.311 150.986C732.759 150.234 719.637 142.429 705.702 138.172C697.899 135.987 689.954 134.35 681.923 133.272L668.04 131.072C652.871 128.672 637.606 126.272 622.252 126.586C617.825 126.678 611.652 125.347 612.012 120.933C612.453 115.451 622.312 116.17 624.212 111.008C625.386 107.815 622.577 104.462 619.496 103.018C616.415 101.574 612.859 101.14 610.063 99.201C607.267 97.262 605.735 92.768 608.305 90.538L586.937 101.492C581.015 104.528 574.399 108.477 573.353 115.049C569.784 115.992 566.662 118.161 564.533 121.176C560.527 121.197 557.378 125.043 556.717 128.995C556.056 132.947 557.257 136.946 558.445 140.772C556.992 137.988 555.445 135.099 552.887 133.282C550.329 131.465 546.426 131.12 544.243 133.376C542.002 135.691 542.526 139.576 544.111 142.382C545.696 145.188 548.132 147.452 549.627 150.306C554.299 159.22 545.833 171.77 535.819 170.777C536.49 161.572 537.162 152.368 537.834 143.163C538.258 140.331 538.018 137.44 537.134 134.717C536.041 132.082 533.244 129.917 530.46 130.54C525.455 131.659 525.882 138.991 527.96 143.678C530.038 148.365 532.118 154.883 527.867 157.754C525.122 159.608 521.401 158.463 518.438 156.983C515.475 155.503 512.305 153.683 509.066 154.371C505.827 155.059 503.79 160.014 506.652 161.681L492.414 159.207C492.179 160.604 491.653 161.936 490.871 163.118C490.089 164.299 489.068 165.303 487.874 166.065C486.679 166.827 485.338 167.33 483.937 167.541C482.537 167.752 481.107 167.668 479.741 167.292L478.341 161.499L476.258 160.919C478.438 161.526 475.027 170.719 471.969 177.743C467.858 177.261 461.851 177.168 461.169 175.99C457.887 170.349 458.276 156.913 452.569 153.739C449.709 152.148 446.776 150.698 443.769 149.389C442.19 148.638 440.522 148.09 438.805 147.759C435.305 147.207 431.772 148.293 428.392 149.367C424.399 150.635 420.312 151.951 417.006 154.524C414.183 156.973 411.762 159.851 409.834 163.053L390.249 192.039C388.304 194.619 386.774 197.487 385.713 200.539C385.213 202.057 385.047 203.664 385.226 205.252C385.404 206.84 385.923 208.37 386.747 209.739C387.615 211.081 388.91 212.092 390.423 212.609C391.935 213.125 393.578 213.118 395.086 212.588C396.978 211.769 398.873 209.913 400.748 210.77C402.168 211.419 402.523 213.286 402.374 214.84C402.013 216.362 401.985 217.944 402.291 219.478C403.145 221.898 406.429 222.739 408.771 221.692C411.049 220.448 412.756 218.369 413.531 215.892C415.788 210.104 415.558 203.699 416.12 197.511C416.682 191.323 418.373 184.706 423.251 180.858C424.711 179.706 426.857 178.876 428.36 179.971C428.923 180.482 429.312 181.157 429.474 181.9C429.635 182.643 429.56 183.418 429.26 184.117C428.631 185.499 427.812 186.786 426.826 187.941C425.159 190.286 423.993 192.949 423.399 195.764C422.806 198.579 422.798 201.486 423.377 204.304L424.377 204.921C428.177 203.934 433.271 205.701 438.321 207.395C434.655 208.485 431.428 210.705 429.099 213.738C423.262 221.928 419.037 229.678 407.49 229.581C404.751 229.558 402.035 229.016 399.295 229.01C396.53 228.839 393.806 229.746 391.695 231.541C389.618 233.575 388.976 236.671 387.195 238.971C384.859 241.996 380.954 243.226 377.388 244.599C374.782 245.599 372.035 246.957 370.837 249.48C370.085 251.549 369.912 253.785 370.337 255.945C370.737 259.766 371.449 264.112 374.691 266.174C375.903 266.806 377.229 267.191 378.592 267.307C379.954 267.422 381.326 267.265 382.627 266.845C385.999 266.025 389.296 264.48 392.759 264.711C398.196 265.073 402.673 270.292 402.728 275.74C402.756 278.498 401.951 281.661 403.779 283.727C405.497 285.668 408.904 285.322 410.679 283.438C411.506 282.436 412.075 281.247 412.337 279.974C412.598 278.702 412.544 277.385 412.179 276.138C411.423 273.654 410.261 271.312 408.739 269.208C410.548 268.739 412.464 268.911 414.16 269.695C415.857 270.479 417.23 271.826 418.045 273.508C419.253 276.191 418.863 279.286 419.245 282.208C419.627 285.13 421.406 288.366 424.345 288.535C425.305 288.562 426.245 288.252 427.001 287.659C427.756 287.065 428.281 286.226 428.483 285.287C428.513 283.807 428.432 282.326 428.241 280.858C428.341 279.413 428.991 278.06 430.056 277.079C431.122 276.097 432.522 275.56 433.971 275.578C433.077 277.23 432.785 279.141 433.147 280.984C433.509 282.827 434.501 284.487 435.953 285.678C438.188 287.408 441.143 287.794 443.928 288.278C446.713 288.762 449.683 289.526 451.48 291.707C454.474 295.34 450.811 296.977 450.24 300.054C449.54 303.832 452.695 309.41 453.907 313.024L470.616 336.399C471.859 338.294 473.326 340.032 474.984 341.577C480.484 346.299 489.546 345.833 494.819 340.861C497.376 338.274 499.036 334.936 499.556 331.336C500.076 327.737 499.428 324.065 497.707 320.861C494.449 314.93 487.992 311.261 484.807 305.287C490.114 309.68 496.628 312.359 503.49 312.97C515.63 315.437 527.165 320.274 537.433 327.205C537.915 337.933 542.031 348.178 549.105 356.258C550.377 347.102 554.645 338.626 561.243 332.152C565.534 327.967 571.397 324.593 577.284 325.719C583.171 326.845 587.637 334.351 584.076 339.173L593.027 339.839L597.041 349.819C597.279 349.12 597.735 348.516 598.342 348.094C598.948 347.673 599.674 347.458 600.412 347.479C603.205 347.901 605.164 350.499 607.821 351.459C612.829 353.268 618.183 348.259 618.831 342.972C619.479 337.685 616.964 332.584 614.522 327.853C619.918 328.853 625.489 328.257 630.552 326.14C635.615 324.022 639.951 320.474 643.028 315.93C646.106 311.386 647.792 306.044 647.879 300.556C647.967 295.069 646.453 289.675 643.522 285.035C649.328 278.937 656.161 273.906 663.709 270.173C670.694 266.722 678.334 264.354 684.439 259.513C690.544 254.672 694.825 246.267 691.888 239.051C689.814 233.951 684.611 230.493 683.054 225.214C680.8 217.572 687.647 209.668 695.382 207.759C703.117 205.85 711.194 208.197 718.814 210.525C717.643 202.685 726.731 195.335 734.153 198.119L743.479 194.343C739.879 202.288 732.067 207.343 726.326 213.91C720.585 220.477 717.165 231.173 723.163 237.51L748.953 214.135L775.929 189.684L774.641 185.9C783.161 182.668 792.323 179.995 800.46 175.982Z" fill="#E6E6E6"/>
<path d="M353.942 280.847C353.595 281.347 353.411 281.941 353.414 282.55C353.417 283.158 353.607 283.751 353.959 284.247C354.421 284.639 355.005 284.858 355.61 284.867C356.216 284.875 356.806 284.672 357.278 284.292C358.2 283.504 358.92 282.506 359.378 281.382C359.825 282.246 360.526 282.951 361.388 283.403C362.249 283.854 363.229 284.029 364.193 283.904C366.119 283.614 367.944 282.853 369.506 281.689C370.745 280.963 371.838 280.013 372.732 278.889C373.174 278.323 373.477 277.661 373.618 276.957C373.759 276.253 373.733 275.526 373.543 274.833C373.078 273.771 372.357 272.841 371.443 272.127L364.619 265.827L363.848 265.596C363.447 265.169 362.963 264.828 362.427 264.592C361.891 264.357 361.312 264.232 360.726 264.226C360.14 264.219 359.559 264.332 359.018 264.556C358.477 264.78 357.986 265.111 357.576 265.529C356.163 267.11 356.157 269.473 356.376 271.582C356.595 273.691 356.928 275.938 355.989 277.839C355.454 278.927 354.542 279.79 353.942 280.847Z" fill="#E6E6E6"/>
<path d="M485.922 352.623C477.082 350.655 468.99 346.198 462.603 339.777C456.216 333.357 451.8 325.243 449.877 316.393C449.039 312.217 448.659 307.654 445.877 304.425C443.187 301.299 438.793 300.171 434.669 300.171C430.545 300.171 426.48 301.12 422.369 301.377C415.169 301.826 407.548 299.925 402.403 294.877C399.966 292.486 398.122 289.449 395.276 287.562C391.451 285.027 386.376 285.029 382.022 286.462C377.168 288.062 373.282 292.44 367.974 291.837C362.454 291.21 356.056 289.259 353.892 296.528C353.269 298.621 353.481 300.916 352.692 302.952C351.476 306.09 348.247 307.859 345.692 310.052C340.548 314.467 337.814 321.175 336.892 327.891C335.97 334.607 336.684 341.428 337.392 348.169C337.777 351.805 338.283 355.718 340.781 358.389C344.263 362.112 350.105 361.968 355.181 361.548L372.881 360.086C376.062 359.823 379.687 359.712 381.952 361.961C383.309 363.309 383.883 365.261 385.077 366.754C386.149 368.026 387.619 368.897 389.25 369.226C390.88 369.554 392.573 369.321 394.054 368.564C392.856 370.702 392.204 373.102 392.155 375.552C392.106 378.002 392.662 380.426 393.774 382.609C394.886 384.793 396.519 386.669 398.529 388.07C400.539 389.472 402.864 390.356 405.297 390.645L405.752 390.932C401.974 397.402 398.052 404.667 399.621 411.994C400.964 418.276 406.167 423.313 407.021 429.68C407.802 435.522 404.753 441.497 406.102 447.235C407.468 453.045 413.336 457.096 419.289 457.529C425.242 457.962 431.089 455.321 435.702 451.529C440.315 447.737 443.879 442.858 447.392 438.029C449.561 435.05 451.786 431.949 452.531 428.339C453.324 424.498 452.405 420.239 454.273 416.793C456.427 412.816 461.54 411.325 464.12 407.611C467.462 402.801 465.493 396.252 466.232 390.442C468.073 376.071 486.337 367.11 485.922 352.623Z" fill="#E6E6E6"/>
<path d="M483.283 401.708C482.783 403.953 480.683 405.431 478.683 406.561C476.683 407.691 474.477 408.831 473.456 410.892C472.411 413.003 472.888 415.519 473.435 417.81C474.572 422.577 475.912 427.289 477.454 431.946C480.443 426.298 483.053 420.457 485.266 414.462C486.203 412.23 486.782 409.864 486.98 407.452C487.072 406.244 486.909 405.031 486.503 403.89C486.097 402.749 485.457 401.706 484.623 400.828L483.283 401.708Z" fill="#E6E6E6"/>
<path d="M606.216 376.702L598.685 368.009C596.968 366.027 595.011 363.909 592.41 363.58L591.339 364.264L597.868 379.811C598.639 382.177 599.995 384.31 601.811 386.011C603.759 387.542 606.918 387.836 608.543 385.965C609.067 385.264 609.397 384.437 609.501 383.568C609.604 382.699 609.477 381.818 609.133 381.013C608.424 379.414 607.436 377.953 606.215 376.701L606.216 376.702Z" fill="#E6E6E6"/>
<path d="M630.539 382.251C631.488 381.922 632.357 381.398 633.092 380.713C633.827 380.028 634.411 379.197 634.806 378.274C635.584 376.424 636.098 374.475 636.332 372.482L637.619 364.698L637.058 364.554C636.513 364.292 635.891 364.237 635.309 364.399C634.726 364.561 634.222 364.928 633.889 365.433C633.257 366.464 632.778 367.581 632.469 368.75C632.31 369.334 632.021 369.874 631.624 370.331C631.227 370.788 630.731 371.149 630.175 371.387C628.16 371.995 626.252 369.86 624.149 369.943C623.299 370.051 622.511 370.444 621.914 371.057C621.316 371.671 620.944 372.469 620.858 373.321C620.736 375.041 621.224 376.75 622.235 378.147C624.028 380.93 627.356 383.167 630.539 382.251Z" fill="#E6E6E6"/>
<path d="M644.418 387.171L650.203 371.935C647.859 373.635 646.063 375.982 645.036 378.689C644.008 381.396 643.793 384.344 644.418 387.171Z" fill="#E6E6E6"/>
<path d="M673.94 374.893L672.77 374.943C672.247 375.977 671.969 377.118 671.958 378.277C671.947 379.435 672.203 380.581 672.706 381.625C673.733 383.706 675.226 385.521 677.07 386.93C679.928 389.289 683.189 391.111 686.697 392.306C691.841 393.807 697.16 394.626 702.517 394.743L711.704 395.343C713.163 395.443 715.05 395.253 715.455 393.849C715.79 392.689 714.802 391.599 713.879 390.82C705.776 384.002 695.954 379.544 685.487 377.934C681.515 377.326 677.306 377.078 673.94 374.893Z" fill="#E6E6E6"/>
<path d="M706.628 415.323L700.021 408.916C697.879 406.839 694.67 404.638 692.215 406.334C690.804 407.309 690.369 409.21 689.173 410.439C688.445 411.092 687.565 411.553 686.614 411.78C685.663 412.007 684.669 411.993 683.725 411.739C681.844 411.21 680.066 410.367 678.466 409.246L673.001 405.855L667.344 402.344L663.088 406.48C663.273 404.445 660.559 403.122 658.68 403.927C657.787 404.428 657.018 405.124 656.431 405.963C655.844 406.802 655.454 407.762 655.29 408.773C654.977 410.793 654.431 412.77 653.663 414.665C651.502 418.802 646.256 420.027 641.64 420.72C637.024 421.413 631.796 422.389 629.325 426.349C627.267 429.649 627.884 433.882 628.571 437.708L631.171 452.183C631.294 453.937 631.998 455.6 633.171 456.909C635.456 458.926 638.996 457.7 641.785 456.47C647.615 453.666 653.872 451.853 660.298 451.105C666.781 450.38 673.305 452.052 678.64 455.805C681.948 458.324 684.47 461.81 687.975 464.047C690.39 465.5 693.104 466.382 695.912 466.627C698.719 466.872 701.545 466.473 704.175 465.46C709.445 463.361 713.807 459.472 716.493 454.476C718.878 450.07 720.075 445.12 719.966 440.111C719.857 435.103 718.445 430.209 715.871 425.911C713.241 422.012 710.137 418.455 706.628 415.323Z" fill="#E6E6E6"/>
<path d="M700.134 474.297C699.605 474.939 699.296 475.733 699.252 476.563C699.207 477.393 699.43 478.216 699.887 478.91C700.847 480.285 702.31 481.227 703.959 481.531C705.592 481.823 707.257 481.9 708.91 481.758L708.96 480.523C708.519 478.356 707.52 476.341 706.06 474.679C704.465 473.163 701.646 472.697 700.134 474.297Z" fill="#E6E6E6"/>
<path d="M756.848 475.622L756.059 475.333L750.421 483.833C749.41 485.357 748.354 487.187 748.971 488.909C749.701 490.947 752.4 491.544 754.497 491.009C756.096 490.574 757.538 489.692 758.654 488.466C759.77 487.24 760.513 485.722 760.797 484.089C761.03 482.447 760.781 480.772 760.079 479.269C759.378 477.766 758.256 476.499 756.848 475.622Z" fill="#E6E6E6"/>
<path d="M771.179 466.629L765.991 462.504C765.924 464.417 765.855 466.331 765.783 468.244H765.588C766.784 469.293 767.914 470.417 768.97 471.607C770.185 472.64 772.222 473.107 773.26 471.907C773.571 471.474 773.747 470.959 773.767 470.426C773.787 469.894 773.649 469.367 773.372 468.912C772.801 468.012 772.055 467.236 771.179 466.629Z" fill="#E6E6E6"/>
<path d="M677.445 287.187C675.268 287.119 672.858 286.987 671.171 288.364C670.616 288.86 670.129 289.428 669.723 290.052L669.128 290.885C668.238 292.05 667.461 293.298 666.81 294.612C666.47 295.228 666.265 295.909 666.211 296.611C666.157 297.312 666.253 298.017 666.495 298.678C666.634 298.994 666.841 299.275 667.101 299.503C667.362 299.73 667.668 299.897 668 299.992C668.332 300.088 668.681 300.109 669.022 300.055C669.363 300 669.688 299.872 669.974 299.678C670.904 298.816 670.687 297.253 671.391 296.197C671.701 295.799 672.099 295.479 672.553 295.262C673.008 295.044 673.507 294.936 674.011 294.944C675.016 294.969 676.017 295.082 677.002 295.282C679.731 295.656 682.51 295.241 685.011 294.086C687.512 292.931 689.63 291.085 691.115 288.765C692.601 286.445 693.391 283.748 693.393 280.993C693.394 278.239 692.608 275.541 691.126 273.219L690.951 272.684C689.444 272.626 687.964 273.099 686.769 274.02C685.575 274.941 684.741 276.252 684.413 277.724C683.926 280.261 684.958 283.207 683.421 285.282C682.124 287.028 679.622 287.255 677.445 287.187Z" fill="#E6E6E6"/>
<path d="M696.932 260.295L696.6 260.266C694.653 260.622 692.784 261.318 691.079 262.323C690.52 262.583 690.073 263.036 689.821 263.599C689.747 263.898 689.748 264.21 689.825 264.508C689.901 264.807 690.051 265.081 690.26 265.307C690.683 265.753 691.178 266.125 691.724 266.407C692.538 266.95 693.437 267.352 694.384 267.597C694.859 267.715 695.356 267.712 695.83 267.59C696.304 267.468 696.741 267.23 697.1 266.897C697.437 266.434 697.668 265.903 697.779 265.341C697.889 264.78 697.874 264.201 697.737 263.645C697.582 262.504 697.312 261.382 696.931 260.295H696.932Z" fill="#E6E6E6"/>
<path d="M663.378 287.833C663.898 286.999 664.268 286.081 664.47 285.119L665.079 282.879L662.909 281.561C661.872 282.101 660.916 282.782 660.068 283.586C659.646 283.991 659.313 284.479 659.09 285.02C658.866 285.56 658.756 286.14 658.768 286.725C658.798 287.309 659.025 287.866 659.411 288.305C659.798 288.744 660.322 289.04 660.898 289.143C661.389 289.158 661.877 289.045 662.311 288.816C662.746 288.586 663.115 288.248 663.38 287.834L663.378 287.833Z" fill="#E6E6E6"/>
<path d="M426.971 86.035C426.113 86.57 426.355 87.863 426.703 88.812L427.903 92.082L428.462 89.966C428.953 89.1451 429.169 88.1892 429.08 87.237C428.887 86.306 427.778 85.535 426.971 86.035Z" fill="#E6E6E6"/>
<path d="M694.434 441.063C722.048 441.063 744.434 418.677 744.434 391.063C744.434 363.449 722.048 341.063 694.434 341.063C666.82 341.063 644.434 363.449 644.434 391.063C644.434 418.677 666.82 441.063 694.434 441.063Z" fill="#8EC677"/>
<mask id="mask0_3_2" style="mask-type:luminance" maskUnits="userSpaceOnUse" x="644" y="341" width="101" height="101">
<path d="M694.434 441.063C722.048 441.063 744.434 418.677 744.434 391.063C744.434 363.449 722.048 341.063 694.434 341.063C666.82 341.063 644.434 363.449 644.434 391.063C644.434 418.677 666.82 441.063 694.434 441.063Z" fill="white"/>
</mask>
<g mask="url(#mask0_3_2)">
<path d="M707.55 388.931C708.219 386.75 708.27 384.427 707.698 382.219C707.126 380.012 705.953 378.006 704.31 376.424C702.666 374.842 700.617 373.747 698.389 373.26C696.161 372.773 693.841 372.913 691.688 373.664C689.535 374.415 687.632 375.749 686.19 377.516C684.749 379.284 683.826 381.416 683.523 383.677C683.221 385.938 683.55 388.238 684.476 390.322C685.402 392.407 686.887 394.194 688.767 395.485L681.236 414.362L718.236 411.227C718.236 411.227 699.486 401.165 699.25 397.145C701.205 396.569 702.986 395.517 704.435 394.083C705.883 392.65 706.954 390.88 707.55 388.931Z" fill="#ED9DA0"/>
<path d="M718.286 410.037L721.441 408.579C722.577 408.796 723.625 409.34 724.456 410.144C725.288 410.948 725.866 411.978 726.121 413.106C727.196 417.173 732.105 438.962 732.105 438.962C732.939 439.849 733.498 440.959 733.716 442.157C733.934 443.355 733.801 444.59 733.333 445.714C733.333 445.714 733.907 450.049 732.105 450.701C730.303 451.353 718.232 460.672 718.232 460.672L718.286 410.037Z" fill="#090814"/>
<path d="M708.782 404.36L700.626 399.393C698.745 408.753 689.041 409.267 687.16 399.908L681.16 404.361L668.5 408.581L670.341 457.665L696.041 457.591V457.665H719.6L721.441 408.581L708.782 404.36Z" fill="#090814"/>
<path d="M671.658 410.037L668.503 408.579C667.367 408.796 666.319 409.34 665.488 410.144C664.656 410.948 664.078 411.978 663.823 413.106C662.748 417.173 664.744 440.689 664.744 440.689C663.91 441.576 663.351 442.686 663.133 443.884C662.915 445.082 663.048 446.317 663.516 447.441C663.516 447.441 662.942 451.776 664.744 452.428C666.546 453.08 671.659 453.37 671.659 453.37L671.658 410.037Z" fill="#090814"/>
<path d="M684.115 380.076L683.178 389.632C683.178 389.632 673.349 370.56 685.569 367.033C685.569 367.033 684.379 365.421 686.106 364.885C687.833 364.349 704.212 361.777 705.517 369.795C705.517 369.795 714.073 375.095 711.484 380.771L708.433 387.441L705.671 387.594C705.671 387.594 705.593 374.894 701.371 375.318C697.149 375.742 684.115 380.076 684.115 380.076Z" fill="#090814"/>
</g>
<path d="M424.934 314.063C452.824 314.063 475.434 291.677 475.434 264.063C475.434 236.449 452.824 214.063 424.934 214.063C397.044 214.063 374.434 236.449 374.434 264.063C374.434 291.677 397.044 314.063 424.934 314.063Z" fill="#8EC677"/>
<mask id="mask1_3_2" style="mask-type:luminance" maskUnits="userSpaceOnUse" x="374" y="214" width="102" height="101">
<path d="M424.934 314.063C452.824 314.063 475.434 291.677 475.434 264.063C475.434 236.449 452.824 214.063 424.934 214.063C397.044 214.063 374.434 236.449 374.434 264.063C374.434 291.677 397.044 314.063 424.934 314.063Z" fill="white"/>
</mask>
<g mask="url(#mask1_3_2)">
<path d="M418.471 269.542L417.971 277.694L433.194 278.466L428.48 267.725L418.471 269.542Z" fill="#ED9DA0"/>
<path d="M417.58 276.475C421.66 278.619 428.187 278.033 435.58 276.475L436.736 336.845C436.736 336.845 412.636 344.653 404.679 334.545L409.834 282.892L417.579 276.48L417.58 276.475Z" fill="#D6D6E3"/>
<path d="M430.939 273.336L441.913 279.836C443.934 281.032 445.499 282.867 446.361 285.052C447.222 287.236 447.332 289.645 446.672 291.899L438.191 320.866C438.191 320.866 452.002 344.594 447.515 346.687C437.43 351.387 422.381 350.246 422.381 350.246L425.744 293.436L430.944 273.336H430.939Z" fill="#0F0E22"/>
<path d="M418.057 276.26L405.648 281.081L402.717 316.881L394.509 345.719C408.409 350.793 407.109 348.429 407.109 348.429L409.409 298.67L418.05 276.27L418.057 276.26Z" fill="#0F0E22"/>
<path d="M399.933 345.105L399.975 344.905L412.659 286.238C412.807 285.592 412.827 284.924 412.717 284.271C412.607 283.617 412.369 282.992 412.018 282.431C411.666 281.87 411.208 281.383 410.668 280.999C410.128 280.615 409.518 280.341 408.873 280.192C408.227 280.044 407.559 280.024 406.905 280.134C406.252 280.244 405.627 280.482 405.066 280.834C404.504 281.185 404.018 281.644 403.634 282.184C403.249 282.723 402.975 283.333 402.827 283.979L388.893 341.257L399.93 345.109L399.933 345.105Z" fill="#0F0E22"/>
<path d="M425.075 271.707C431.896 271.707 437.425 266.178 437.425 259.357C437.425 252.536 431.896 247.007 425.075 247.007C418.254 247.007 412.725 252.536 412.725 259.357C412.725 266.178 418.254 271.707 425.075 271.707Z" fill="#ED9DA0"/>
<path d="M419.2 243.356C416.48 244.312 414.923 244.856 413.5 246.233C411.092 248.553 410.694 251.654 410.325 254.533C409.773 257.374 410.001 260.311 410.984 263.033C411.434 264.169 413.62 269.233 417.802 269.871C418.623 269.997 420.552 270.03 419.996 269.619C414.852 265.819 412.657 263.529 412.837 257.676C412.949 254.039 418.506 250.113 421.805 249.407C422.598 249.245 423.416 249.256 424.204 249.44C424.992 249.624 425.731 249.975 426.371 250.471C429.144 252.748 429.026 262.162 431.95 264.13C433.15 264.94 432.35 259.242 433.199 260.166C434.871 261.989 433.799 264.779 433.499 265.844C432.074 270.887 430.581 267.158 429.19 271.464C427.69 276.113 440.868 279.244 441.316 280.282C442.096 282.088 430.95 290.657 434.01 292.143C437.893 294.03 440.954 291.573 442.759 293.679C443.768 294.856 443.222 296.104 445.045 299.767C445.64 300.967 445.939 301.561 446.201 301.54C447.447 301.44 449.466 291.462 446.201 282.171C444.831 278.271 443.489 274.452 439.894 271.464C437.994 269.884 436.394 269.316 435.943 267.472C435.294 264.836 437.988 263.712 438.527 259.555C438.896 256.712 439.155 252.645 438.15 250.039C437.202 247.577 436.379 245.439 434.225 243.504C433.707 243.039 429.531 239.876 425.103 239.786C423.065 239.745 421.566 242.524 419.203 243.355L419.2 243.356Z" fill="#090814"/>
<path d="M438.315 280.203C440.202 279.936 442.121 280.397 443.681 281.491C445.242 282.585 446.328 284.232 446.721 286.097C449.561 299.597 454.658 328.367 446.653 328.847C439.761 329.14 432.861 328.507 426.138 326.964L428.65 312.52L436.814 311.683L432.014 289.221C431.798 288.212 431.792 287.169 431.997 286.158C432.201 285.146 432.612 284.188 433.203 283.342C433.794 282.496 434.553 281.781 435.432 281.241C436.311 280.701 437.292 280.347 438.314 280.203H438.315Z" fill="#0F0E22"/>
</g>
<path d="M147.974 200.399C157.879 200.399 167.561 203.336 175.797 208.839C184.033 214.342 190.451 222.163 194.242 231.314C198.032 240.465 199.024 250.534 197.092 260.249C195.159 269.964 190.39 278.887 183.386 285.891C176.382 292.895 167.459 297.664 157.744 299.597C148.03 301.529 137.96 300.537 128.809 296.747C119.658 292.956 111.837 286.537 106.334 278.302C100.831 270.066 97.894 260.384 97.894 250.479C97.894 237.197 103.17 224.459 112.562 215.067C121.954 205.675 134.692 200.399 147.974 200.399Z" fill="#8EC677"/>
<mask id="mask2_3_2" style="mask-type:luminance" maskUnits="userSpaceOnUse" x="97" y="200" width="101" height="101">
<path d="M147.875 300.361C175.479 300.361 197.856 277.984 197.856 250.38C197.856 222.776 175.479 200.399 147.875 200.399C120.271 200.399 97.894 222.776 97.894 250.38C97.894 277.984 120.271 300.361 147.875 300.361Z" fill="white"/>
</mask>
<g mask="url(#mask2_3_2)">
<path d="M150.925 240.838C155.705 240.838 159.579 236.963 159.579 232.184C159.579 227.404 155.705 223.53 150.925 223.53C146.146 223.53 142.271 227.404 142.271 232.184C142.271 236.963 146.146 240.838 150.925 240.838Z" fill="#FFB9B9"/>
<path d="M143.451 234.151C143.451 234.151 143.057 246.346 141.091 247.919C139.125 249.492 148.172 256.18 148.172 256.18L154.072 246.739V238.085L143.451 234.151Z" fill="#FFB9B9"/>
<path d="M147.385 250.674L142.609 243.462L139.909 247.133L135.975 258.148L139.122 301.026L157.611 301.42L159.971 252.247L154.071 245.166L147.385 250.674Z" fill="#F2F2F2"/>
<path d="M167.447 253.427L170.594 253.034C170.594 253.034 171.38 253.427 171.774 256.181C172.168 258.935 176.886 283.325 176.886 283.325L170.592 313.225L163.511 303.784L167.84 287.263L163.512 270.735L167.447 253.427Z" fill="#090814"/>
<path d="M127.322 253.034H124.962L119.062 284.898L124.569 309.682L130.077 300.634L128.503 290.799L129.288 282.145L132.042 277.031L127.322 253.034Z" fill="#090814"/>
<path d="M145.812 232.187L147.386 231.793C147.386 231.793 148.566 225.104 151.32 225.893C154.074 226.682 161.155 227.467 161.155 224.319C161.155 221.171 154.466 218.419 150.534 218.811C146.602 219.203 139.912 220.387 140.305 226.287C140.685 230.294 141.674 234.219 143.237 237.928L143.444 234.428L145.812 232.187Z" fill="#090814"/>
<path d="M170.202 253.034L157.614 247.92L154.664 245.756L145.813 284.898L139.913 267.198L141.683 244.579L125.358 253.037L130.868 279.789L131.655 290.017L129.295 298.278C129.295 298.278 121.034 304.178 123.788 310.473C126.542 316.768 129.688 317.162 129.688 317.162C129.688 317.162 143.063 304.574 143.851 301.427C144.639 298.28 145.818 292.773 145.818 292.773C145.818 292.773 152.507 317.95 160.373 317.556C168.239 317.162 168.241 308.902 168.241 308.902L166.274 300.248L163.123 291.189L164.697 276.241L170.202 253.034Z" fill="#090814"/>
</g>
</g>
<defs>
<clipPath id="clip0_3_2">
<rect width="800.46" height="522.403" fill="white"/>
</clipPath>
</defs>
</svg>
