<svg width="95" height="158" viewBox="0 0 95 158" fill="none" xmlns="http://www.w3.org/2000/svg">
<path d="M93.3832 134.104C93.3929 134.574 93.4027 135.044 93.1892 135.897C92.9659 136.28 92.863 136.62 92.8759 136.71C92.8888 136.799 92.759 136.926 92.4079 137.02C91.3703 140.074 90.6839 143.033 89.9987 145.996C90 146 89.9939 146.001 89.7428 146.215C89.3332 147.282 89.1746 148.136 88.983 149.318C88.9202 150.087 88.8905 150.526 88.5819 151.144C86.6514 153.46 85 155.597 83.3818 157.692C82.0367 156.993 80.9407 156.425 79.7005 155.452C79.4664 153.029 79.3766 151.01 79.5178 148.706C79.5298 138.754 75.1946 130.799 69.4191 123.418C67.5284 121.002 65.7955 118.462 64.2408 115.792C64.6248 115.01 64.7585 114.416 64.948 113.555C65.2885 112.845 65.5733 112.401 66.2257 111.939C67.9505 109.478 69.6617 107.145 70.4796 104.532C70.7809 103.57 69.2325 101.305 68.048 100.83C67.0995 100.449 64.8092 101.517 64.193 102.572C62.5964 105.305 61.5953 108.387 60.2622 111.224C60.168 111.118 60.3143 111.36 59.9472 111.262C58.6168 111.718 57.5586 112.154 56.7071 112.846C53.4773 115.468 50.6554 118.879 47.0232 120.634C43.8736 122.155 42.4345 123.94 42.0293 127.059C41.9891 127.027 42.078 127.074 41.7056 127.043C36.3723 129.305 31.9085 132.203 28.8331 136.798C26.3985 137.011 24.1999 137.508 21.7415 137.792C22.697 135.87 23.9123 134.16 25.258 132.266C23.7279 131.028 21.8533 129.512 20.1151 127.665C21.7645 124.047 23.3235 120.78 24.7815 117.468C28.91 108.089 32.9251 98.6587 37.1784 89.3371C37.8139 87.9444 39.3905 86.8871 40.7173 85.9326C41.8601 85.1104 43.2675 84.6561 45.682 83.5017C42.9785 78.9905 40.5502 74.9384 38.0588 70.6075C37.6685 69.8818 37.3413 69.4349 36.9702 68.6425C34.9641 66.8512 33.0018 65.4054 30.8616 63.6548C22.7086 57.5566 13.5767 55.9794 3.9933 55.6631C2.65897 54.1996 1.33011 53.1003 0.074707 51.6333C1.91576 50.5748 3.68335 49.8837 6.01488 48.9722C3.99617 48.1809 2.49403 47.5921 0.994537 46.603C0.998718 45.1351 1.00028 44.0677 1.33875 42.999C2.12528 42.9944 2.57486 42.9912 3.38454 42.9448C8.05533 41.5974 12.4926 40.598 16.6315 38.88C19.3205 37.7638 21.6409 35.6816 23.9437 33.8077C24.2487 33.5594 23.4726 31.9825 22.8833 30.8596C21.4044 30.517 20.2393 30.3356 18.8266 29.8415C16.72 29.3538 14.861 29.1786 13.0602 28.6478C15.0439 26.5486 18.1114 25.4904 17.1896 21.6441C18.9535 20.7297 20.4828 20.0689 22.4487 19.3427C25.2262 19.304 27.567 19.3309 30.0105 19.6294C31.7312 19.7429 33.3493 19.5848 35.2081 19.3145C35.6001 19.1103 35.7514 19.0184 36.2063 18.6836C36.1539 12.7774 35.798 7.11397 35.4028 0.824341C39.9002 3.72879 44.6155 6.85254 49.4217 9.82964C50.8588 10.7199 52.5499 11.2001 54.0881 11.9377C54.0515 12.0072 54.1008 11.8587 54.1712 12.1195C54.5446 12.5508 54.8476 12.7212 55.072 12.9123C54.9935 12.9331 55.1419 12.8656 55.0885 13.2393C57.0732 15.6973 59.1112 17.7814 61.1563 19.8754C61.1633 19.8852 61.1867 19.8579 61.1172 20.2438C61.266 21.7463 61.1101 23.2007 61.7635 23.9244C65.8088 28.4044 70.0627 32.6952 74.1837 37.1084C75.1722 38.1669 76.4329 39.3484 76.6914 40.6479C77.9657 47.053 78.9449 53.5168 79.8603 60.2908C78.7952 63.893 77.2373 67.1418 77.1248 70.4399C76.7833 80.4461 77.0012 90.4714 77.0012 100.911C80.0903 100.344 83.5945 103.134 84.2833 97.8557C86.6699 97.025 87.5932 91.7711 90.9801 96.4453C91.8566 99.2683 92.7144 101.7 93.5722 104.131C93.8035 105.28 94.0347 106.429 94.4014 108.269C94.5267 110.567 94.5166 112.173 94.3606 113.803C94.2146 113.827 93.9564 113.971 93.6835 114.248C93.5669 117.059 93.7232 119.594 93.9296 122.32C94.0753 122.771 94.2428 122.969 94.52 123.469C94.6002 125.026 94.6427 126.221 94.6853 127.416C94.6853 127.416 94.3488 127.696 93.8266 127.9C93.3306 130.105 93.3569 132.105 93.3832 134.104Z" fill="#8EC677"/>
</svg>
